<svg version="1" xmlns="http://www.w3.org/2000/svg" width="5333.333" height="5333.333" viewBox="0 0 4000.000000 4000.000000"><path d="M1927 287.6c-115.9 7.3-230.2 29.4-342.3 66l-13.7 4.5-12.3 20.7c-26.3 44.1-51.1 91-70.5 133.2-38.3 83.5-63.2 152.1-87.2 240.3-15.4 56.2-29.8 133.5-37.5 200.7-1.9 16.5-5.9 63.8-7.6 89.5-1.8 25.9-1.8 141.7-.1 171.5 10.3 181 45.5 339.6 109.2 492 61.5 147.1 149.8 283.6 266.5 412 22.6 24.8 89.6 91.6 111.5 111.1 44.6 39.8 88.9 75.5 125.5 101.2 17.4 12.2 58.8 39.9 72.5 48.4 65.8 40.9 136.5 76.5 205.5 103.6 68.4 26.8 131.4 45.6 206 61.6 118.7 25.5 266.3 34.9 390 25.1 60.4-4.9 127.1-15.2 186.8-29 26-6 75.8-19.2 84.6-22.5l3.4-1.2-3.7-.7c-6.5-1.2-47.2-13.1-67.1-19.6-53.2-17.4-94.3-34-142-57.4-32.6-16-51.5-26.2-81.8-44.3-64.2-38.3-133.1-91.1-187.3-143.5-8.4-8.1-16.2-15.5-17.4-16.5-3.1-2.7-41.5-43.4-50.2-53.3-22.7-25.9-45.2-53.6-62.3-76.5-120.7-162.2-192.6-345.6-215.4-550-8.7-78-9.4-181.9-1.6-255 7.6-71.3 17.6-125.1 35.6-191 30.2-110.5 82.1-225.5 147.1-325.8 63.4-97.9 146.5-188.9 238.3-261.2 8.3-6.5 15.1-12 15.2-12.4.2-.3-.9-1.3-2.5-2.2-1.5-.9-10.1-6.3-19.2-12.1-20.6-13-61.7-36.8-90.2-52.2-95.3-51.4-195.4-90.4-300.3-117.1-70-17.8-146.3-30.3-219.5-36-48.3-3.7-123.9-4.6-166-1.9z"/><path d="M837.1 518.1c-3.3 2.2-9.1 7.3-12.8 11.3-3.8 4.1-8.3 8.1-10 9-2.1 1-3.3 2.4-3.3 3.6 0 1.4-.7 2-2.2 2-1.4 0-6.7 4.4-15.3 12.7-7.2 7.1-16.8 15.7-21.3 19.3-4.9 4-8.1 7.2-8.2 8.4 0 1.1-4.8 6.9-10.7 13.1-6 6.1-14.6 16.5-19.3 23.2-6.8 9.7-9.6 12.8-14.2 15.8-4.2 2.7-5.8 4.3-5.8 5.9 0 1.7-2.1 3.8-8 8-5.8 4.2-8 6.4-8 8 0 1.3-2.2 4.3-5.5 7.6-3 2.9-5.5 6.3-5.7 7.4-.2 1.1-2.7 3.7-5.8 5.9-3 2.1-5.7 4.6-5.9 5.5-.2.9-3 4.7-6.2 8.3-3.3 3.7-5.9 7.4-5.9 8.3 0 .9-1.6 2.4-3.5 3.3-3.1 1.5-3.5 2.1-3.5 5.5 0 3.1-.3 3.8-2 3.8s-2 .7-2 3.9c0 3.9-.1 4-5.7 5.8-5.7 1.9-5.8 2-6.1 6-.2 2.5-1.1 4.8-2.3 5.8-1 1-1.9 2.8-1.9 4 0 1.6-1.1 2.7-4 4-2.9 1.3-4 2.4-4 4 0 1.5-1.1 2.7-3.5 3.8-2.1 1-3.5 2.4-3.5 3.5s-.9 2.7-2.1 3.8c-1.2 1-3 3.6-4.1 5.8-1.1 2.1-2.8 4.1-3.9 4.3-1.4.4-1.9 1.4-1.9 3.9 0 2.7-.4 3.4-2 3.4-1.3 0-2 .7-2 2s-1.4 2.7-4 4c-2.3 1.2-4 2.8-4 3.8 0 .9-.9 2.8-2 4.2-1.1 1.4-2 3.3-2 4.3s-1.5 2.4-3.5 3.4c-1.9.9-3.5 2.4-3.5 3.3 0 .9-.9 2.5-2 3.5-1.4 1.3-2 3.1-2 6.2 0 3.6-.3 4.3-2 4.3-1.3 0-2 .7-2 2s-.7 2-2 2c-1.6 0-2 .7-2 3.6 0 2.7-.5 3.7-2 4.1-1.1.3-2 1.3-2 2.3 0 .9-.9 2.5-2 3.5s-2 2.6-2 3.7-.7 1.8-2 1.8c-1.4 0-2 .7-2 2.3 0 1.3-.9 3.2-2 4.2s-2 2.6-2 3.7-.7 1.8-2 1.8c-1.5 0-2.3 1.2-3.6 5.6-1.1 3.8-2.2 5.8-3.5 6.1-1 .3-1.9 1-1.9 1.7 0 .6-.9 2.2-2 3.6s-2 3.2-2 4.1c0 .9-.7 2.2-1.6 3-.8.7-2.7 3.4-4 6.1-1.7 3.3-3.1 4.8-4.4 4.8-1.8 0-2 .7-2 5.5v5.5h-8v4.3c0 3.1-.6 4.9-2 6.2-1 .9-2.7 4.2-3.5 7.3-.9 3-3.2 7.4-5.1 9.6-7.2 8.5-13.3 17.9-14.9 22.7-1.2 3.6-2.2 4.9-3.6 4.9-1.6 0-1.9.7-1.9 5.5s-.2 5.5-2 5.5c-1.3 0-2 .7-2 2s-.7 2-2 2c-1.7 0-2 .7-2 4 0 2.9-.4 4-1.5 4-1 0-1.5 1-1.5 3.4 0 1.8-.9 4.5-2 5.9-1.1 1.4-2 3.2-2 4.1 0 .9-.8 1.6-2 1.6-1.7 0-2 .7-2 4s-.3 4-2 4c-1.3 0-2 .7-2 2s-.7 2-2 2c-1.7 0-2 .7-2 4s-.3 4-2 4c-1.8 0-2 .7-2 5.5s-.2 5.5-2 5.5c-1.7 0-2 .7-2 4s-.3 4-2 4-2 .7-2 4c0 2.9-.4 4-1.5 4-1.2 0-1.5 1.3-1.5 5.6 0 4.7-.3 5.7-1.9 6.1-1.1.3-2.1 1.3-2.4 2.4-.3 1-1.4 1.9-2.4 1.9-1.5 0-2.4 1.3-3.6 5.3-.9 3-1.7 6.3-1.7 7.5 0 1.5-.6 2.2-2 2.2-1.7 0-2 .7-2.1 4.2-.1 6.6-3.1 14.2-5.7 14.6-1.4.2-2.2 1.1-2.2 2.3 0 1.2-.7 1.9-2 1.9-1.7 0-2 .7-2 4.5 0 2.6-.9 6.3-2 8.5s-2 5.5-2 7.5c0 2.4-.4 3.5-1.5 3.5-1.2 0-1.5 1.3-1.5 5.5 0 4.8-.2 5.5-2 5.5-1.6 0-2 .7-2 3.6 0 2.7-.5 3.7-2 4.1-1.5.4-2 1.4-2 4 0 2.5-.5 3.6-1.8 4-.9.2-2.3 1.9-2.9 3.6-.6 1.8-2.1 5.7-3.2 8.8-1.1 3.1-2.6 8.6-3.3 12.3-1 5.2-1.6 6.6-3 6.6-1.5 0-1.8.9-1.8 5.5 0 4.8-.2 5.5-2 5.5-1.3 0-2 .7-2 2s-.7 2-1.9 2c-1.5 0-2.1 1.4-3.5 8.9-.9 4.9-1.6 10-1.6 11.4 0 1.9-.6 2.6-2.2 2.9-1.9.3-2.5 1.4-4 8.8-.9 4.7-1.7 10.7-1.8 13.3 0 4-.4 5-2 5.4-1.5.4-2 1.4-2 3.9 0 2.7-.4 3.4-2 3.4-1.8 0-2 .7-2 6s-.2 6-2 6c-1.6 0-2 .7-2 3.7 0 2.1-1.8 10.2-4 18.1-2.2 7.8-4 15.8-4 17.7 0 2.8-.4 3.5-2 3.5-1.8 0-2 .7-2 8.1 0 7.4-1.1 11.7-13.5 54-10.7 36.4-13.5 47.2-13.5 51.9 0 5.3-.2 6-2 6s-2 .7-2 7.5-.2 7.5-2 7.5c-1.9 0-2 .7-2 11.5 0 9.6-.3 11.5-1.5 11.5s-1.5 2-1.5 11.6c0 10.7-.1 11.6-2 12.1-1.7.5-2 1.4-2 5.9 0 4.7-.2 5.4-2 5.4-1.9 0-2 .7-2 13.5s-.1 13.5-2 13.5c-1.8 0-2 .7-2 7.3 0 4-1.8 19-4 33.5-3.6 23.6-4 28-4 45.2 0 18.3-.1 19-2 19s-2 .7-2 11.5-.1 11.5-2 11.5c-2 0-2 .7-2 41.7-.1 32.7-.5 45.8-1.9 60.3-1.7 17.8-1.7 19.8 0 53 1.2 22.2 1.8 50.5 1.8 79.2.1 44.1.1 44.8 2.1 44.8 1.9 0 2 .7 2 11.5s.1 11.5 2 11.5 2 .7 2 21.5.1 21.5 2 21.5 2 .7 2 15.5.1 15.5 2 15.5c1.8 0 2 .7 2 8.5 0 6.2 3 26.8 11 74.8 13.2 79.2 11.7 71.7 14 71.7 1.4 0 2.2 1.1 3 4.2.6 2.4 1.6 6 2.1 8.2 1.9 7.1 4.9 24.1 4.9 27.3 0 2.6.4 3.3 2 3.3 1.8 0 2 .7 2 7.4 0 6.5.2 7.4 2 7.9 1.6.4 2 1.4 2 5.2 0 7.5 2.3 14.8 26.7 86 12.9 37.4 24.3 71.6 25.4 75.9 1.1 4.4 2.9 9.6 4 11.7 1 2.1 1.9 4.5 1.9 5.2 0 .8.9 1.7 2 2 1.7.4 2 1.4 2 6.1 0 4.9.2 5.6 2 5.6 1.7 0 2 .7 2 4s.3 4 2 4c1.8 0 2 .7 2 5.4 0 4.5.3 5.4 2 5.9 1.5.4 2 1.4 2 4.1 0 2.5.4 3.6 1.5 3.6 1.2 0 1.5 1.3 1.5 6 0 5.1.3 6 1.8 6 1.2 0 2 1.3 2.9 4.7 1.9 8 3.1 10.3 5.3 10.3 1.7 0 2 .7 2 4s.3 4 1.9 4c1.6 0 2.3 1.6 4.2 9.4 1.7 7.1 2.7 9.6 4.1 9.9 1.3.4 1.8 1.5 1.8 4 0 2.6.5 3.6 1.9 4 1.5.3 2.6 2.6 4.3 8.1 1.3 4.2 2.9 7.6 3.6 7.6.7 0 1.2 1.4 1.2 3.5 0 2.8.4 3.5 2 3.5 1.7 0 2 .7 2 4s.3 4 2 4 2 .7 2 4 .3 4 2 4c1.8 0 2 .7 2 5.5 0 4.4.3 5.5 1.6 5.5.9 0 1.8.9 2.1 1.9.3 1.1 1.3 2.1 2.4 2.4 1.4.4 1.9 1.4 1.9 4s.5 3.6 2 4c1.5.4 2 1.4 2 4.1 0 2.9.4 3.6 2 3.6 1.7 0 2 .7 2 4.4 0 2.6.6 4.8 1.5 5.6.8.7 1.5 2.1 1.5 3.1 0 1.2.7 1.9 2 1.9s2 .7 2 2 .7 2 2 2c1.7 0 2 .7 2 4s.3 4 2 4c1.5 0 2 .7 2 2.5 0 1.4.8 2.9 2 3.5 1.5.8 2 2.1 2 4.9 0 3 .4 4 2 4.4 1.6.4 2 1.4 2 4.4 0 3.4.4 4 3.7 5.8 3.1 1.6 4.2 3.1 5.8 7.6 1.1 3.2 2.8 6.6 3.8 7.6 1 1.2 1.7 3.6 1.7 6 0 2.8.6 4.6 2.1 5.9 1.2 1 3 3.6 4 5.6 1.2 2.3 2.7 3.8 3.8 3.8 1.3 0 2.4 1.6 4 6 1.7 4.5 2.7 6 4.2 6s1.9.7 1.9 3.4c0 2.5.5 3.5 2 3.9 1.6.4 2 1.4 2 4.4 0 3.5.4 4.1 3.6 5.6 2 1 3.8 2.7 4.1 3.7.3 1.1 1.2 2 1.9 2 1 0 1.4 1.2 1.4 3.8 0 2.6.7 4.5 2 5.7 1.1 1 2 2.8 2 4 0 1.2.9 3 2 4s2 2.6 2 3.7.7 1.8 2 1.8c1.4 0 2 .7 2 2.3 0 1.9.9 2.8 4 4 3.1 1.2 4 2.1 4 4 0 1.3.9 3.2 2 4.2s2 2.8 2 4c0 1.1 1.8 3.8 4 6 2.2 2.1 4 4.6 4 5.5 0 .9 1.6 2.4 3.5 3.3 2 1 3.5 2.4 3.5 3.4s.9 2.9 2 4.3 2 3.2 2 4.1c0 .9.9 2.4 2 3.4s2 2.8 2 4c0 1.2.9 3 2 4s2 2.8 2 4c0 1.6 1.1 2.7 3.9 4 2.8 1.2 4.4 2.8 5.6 5.6 1.4 2.9 2.4 3.9 4.2 3.9 1.8 0 2.3.5 2.3 2.4 0 1.3.7 2.9 1.5 3.6.8.7 1.5 2.2 1.5 3.4 0 1.2 1.8 3.9 4 6.1 2.2 2.2 4 4.9 4 6.1 0 1.5 1.1 2.5 4 3.7 3.1 1.2 4 2.1 4 4 0 1.3.9 3.2 2 4.2s2 2.6 2 3.6c0 1.1 2.4 3.4 6 5.9 3.5 2.4 6 4.8 6 5.8s1.6 3.3 3.5 5.2c2 1.9 3.5 4.4 3.5 5.7 0 1.6.6 2.3 2 2.3 1.3 0 2 .7 2 2s.7 2 2 2c1.2 0 2 .7 2 1.7 0 .9 2.7 4.4 6 7.9 3.3 3.4 6 7.1 6 8.1 0 2.3 3.1 5.4 7.8 7.7 1.8.9 3.2 2.4 3.2 3.4s2.7 4.4 5.9 7.7c3.3 3.2 6.1 6.8 6.3 8.1.2 1.4 3.8 5 10 10.1 7.3 5.8 17.5 16.6 40.5 42.3 30.4 34.1 31.4 35.1 73.9 73.6 30.4 27.6 44.6 41.2 48.3 46.3 3 4.1 6 7.1 7 7.1s2.6.9 3.6 2 2.9 2 4.1 2c1.7 0 2.9 1.1 4.4 4 1.2 2.4 2.8 4 3.8 4s3.6 1.8 5.7 4c2.2 2.2 4.9 4 6.1 4 1.5 0 3.2 1.7 5.8 5.5 2.1 3.3 4.4 5.5 5.4 5.5s3.6 1.8 5.7 4c2.3 2.4 4.8 4 6.2 4 1.6 0 2.8 1.1 4.3 4 1.3 2.6 2.7 4 4 4 1.3 0 2.7 1.4 4 4 1.8 3.6 2.4 4 5.8 4s4 .4 5.5 3.5c1.1 2.3 2.4 3.5 3.7 3.5 1.3 0 2.6 1.4 4 4 1.8 3.6 2.4 4 5.9 4 2.5 0 4.4.7 5.6 2 1 1.1 2.9 2 4.2 2 1.6 0 2.3.6 2.3 2 0 1.3.7 2 1.8 2 1 0 3.6 1.8 5.7 4s4.9 4 6 4c1.4 0 2.7 1.1 3.8 3.5 1.1 2.3 2.4 3.5 3.7 3.5 1.3 0 2 .7 2 2 0 1.6.7 2 3.6 2 2.7 0 3.7.5 4.1 2 .3 1.1 1.3 2 2.3 2 .9 0 2.5.9 3.5 2s2.8 2 4 2c1.6 0 2.7 1.1 4 4 1.7 3.7 2.1 4 5.7 4 3.1 0 3.8.3 3.8 2 0 1.3.7 2 2 2s2 .7 2 2c0 1.5.7 2 2.5 2 1.4 0 2.9.8 3.5 2 .8 1.5 2.1 2 5.5 2 3.3 0 4.5.4 4.5 1.5 0 .8.7 1.5 1.6 1.5.9 0 1.8.8 2.1 1.8.2 1 1.2 2.2 2.2 2.7 4 2.2 11.6 7.2 14.1 9.3 1.5 1.2 3.7 2.2 4.9 2.2 1.4 0 2.1.6 2.1 2 0 1.3.7 2 1.9 2 1 0 2.4.7 3.2 1.6.7.8 3.4 2.6 5.9 3.9 2.5 1.3 5.2 3.1 5.9 3.9.8 1 2.9 1.6 5.5 1.6 3.2 0 4.8.6 6.5 2.4 1.2 1.3 4 3.1 6.2 4.1 2.8 1.3 3.9 2.4 3.9 4 0 1.7 1.1 2.5 5.4 3.8 4.1 1.3 5.5 2.3 5.8 3.8.2 1.6 1.7 2.6 6.2 3.9 3.2 1 6.8 2.8 8 3.9 1.4 1.4 3.6 2.1 5.9 2.1 2.6 0 3.7.4 3.7 1.5 0 .8.7 1.5 1.6 1.5.9 0 1.8.9 2.1 2 .3 1.1 1.1 2 1.8 2 .6 0 2 .9 3 2 1.3 1.4 3.1 2 6.2 2 3.6 0 4.3.3 4.3 2s.7 2 4 2 4 .3 4 2c0 1.3.7 2 1.8 2s2.7.9 3.7 2 2.9 2 4.2 2c1.6 0 2.3.6 2.3 2 0 1.6.7 2 3.5 2s3.5.4 3.5 2c0 1.8.7 2 6 2 4.7 0 6 .3 6 1.5 0 1.1 1.1 1.5 3.6 1.5 2.7 0 3.7.5 4.1 2 .4 1.5 1.4 2 4 2s3.6.5 4 2c.3 1.1 1.2 2 2 2s1.7.9 2 2c.4 1.5 1.4 2 3.9 2 2.7 0 3.4.4 3.4 2 0 1.7.7 2 4 2s4 .3 4 2c0 1.8.7 2 6 2s6 .2 6 2c0 1.7.7 2 4 2s4 .3 4 2c0 2 3.2 3.3 11.3 4.6 2.7.5 3.7 1.1 3.7 2.5 0 1.5.7 1.9 3.6 1.9 2.7 0 3.7.5 4.1 2 .4 1.5 1.4 2 4 2 1.8 0 5.1.9 7.3 2s5.7 2 8 2c3.3 0 4 .3 4 2s.7 2 4 2 4 .3 4 2c0 1.3.7 2 2 2s2 .7 2 2c0 1.8.7 2 5.5 2s5.5.2 5.5 2c0 1.7.7 2 4 2 2.9 0 4 .4 4 1.5 0 1.2 1.3 1.5 5.6 1.5 4.7 0 5.7.3 6.1 2 .4 1.6 1.5 2 6.2 2.2 4.8.3 5.6.6 5.9 2.4.2 1.7 2.4 2.7 11.5 5.7 6.2 2 12.2 3.7 13.5 3.7 1.5 0 2.2.6 2.2 1.9 0 2.3.2 2.4 12.8 4.7 8.1 1.5 10.2 2.2 10.2 3.5 0 1.3 2 2.1 9.6 3.5 7.5 1.4 9.8 2.2 10.2 3.6.3 1.5 1.5 1.8 5.8 1.8 4.7 0 5.4.2 5.4 2s.7 2 7.6 2c6.7 0 7.6.2 8.1 2 .5 1.7 1.4 2 5.9 2 4.7 0 5.4.2 5.4 2 0 1.7.7 2 4 2s4 .3 4 2 .7 2 4.3 2c3.6 0 17.7 2 24.5 3.5 1.4.3 2.2 1.3 2.2 2.5 0 1.5.7 2 2.6 2 2.8 0 16.1 3.3 32.4 8 5.8 1.7 33.9 8.4 62.5 15 50.8 11.6 53.4 12.1 115 21.4 34.7 5.3 72.5 10.5 84 11.6 29.5 2.8 91.7 6 116.8 6 11.7 0 32 .7 45.2 1.5 13.2.8 31.8 1.5 41.3 1.5 14.6 0 17.2-.2 17.2-1.5s5.4-1.5 42.5-1.5c41.8 0 42.5 0 42.5-2 0-1.9.7-2 25.5-2s25.5-.1 25.5-2 .7-2 17.7-2c17.5 0 18.1-.1 76.4-9.5 32.3-5.2 59.2-9.5 59.8-9.5.6 0 1.1-.9 1.1-2 0-1.8.7-2 6-2s6-.2 6-2c0-1.7.7-2 3.9-2 2.1 0 8.3-.9 13.6-2 5.3-1.1 12.4-2 15.6-2 5.2 0 5.9-.2 5.9-1.9 0-2.2-1.8-1.7 25.2-6.6 11-2 24.1-5.1 30-7.1 13-4.4 42.8-11.9 53.3-13.4 10.6-1.5 11.5-1.8 11.5-4.1 0-1.2.7-1.9 1.9-1.9 1 0 2.1-.9 2.4-2 .5-1.8 1.4-2 8.1-2 6.9 0 7.6-.2 7.6-2 0-1.5.7-2 2.7-2 1.4 0 10.3-2.3 19.7-5.1 9.4-2.8 17.9-5.3 18.9-5.5.9-.3 1.7-1.3 1.7-2.3 0-1.4 1.8-2.1 10.2-3.5 12.5-2.2 12.8-2.3 12.8-4.7 0-1.6.7-1.9 4.1-1.9 6 0 18.7-4.1 19.2-6.3.4-1.2 1.5-1.7 4-1.7 2.6 0 3.6-.5 4-2 .4-1.5 1.4-2 4.1-2 2.9 0 3.6-.4 3.6-2 0-1.8.7-2 6-2 4.7 0 6-.3 6-1.5s1.3-1.5 5.5-1.5c4.8 0 5.5-.2 5.5-2 0-1.7.7-2 4-2s4-.3 4-2 .7-2 4-2 4-.3 4-2 .7-2 4-2 4-.3 4-2 .7-2 4-2c2.3 0 5.8-.9 8-2s4.6-2 5.5-2c.8 0 1.5-.8 1.5-1.8 0-1.5 1.9-2.3 9.5-4.1 6.4-1.5 9.5-2.7 9.5-3.7 0-.8.9-1.4 2-1.4 1.3 0 2-.7 2-2 0-1.8.7-2 6-2s6-.2 6-2c0-1.7.7-2 4-2s4-.3 4-2c0-1.6.7-2 3.4-2 2.5 0 3.5-.5 3.9-2 .4-1.5 1.4-2 4-2s3.6-.5 4-2c.4-1.5 1.4-2 4-2s3.6-.5 4-2c.4-1.5 1.4-2 4.1-2 2.9 0 3.6-.4 3.6-2 0-1.7.7-2 4-2 2.9 0 4-.4 4-1.5 0-1 1.1-1.5 3.5-1.5 2.8 0 3.5-.4 3.5-2 0-1.7.7-2 4-2s4-.3 4-2c0-1.4.7-2 2.3-2 1.3 0 3.2-.9 4.2-2s2.6-2 3.7-2 1.8-.7 1.8-2c0-1.7.7-2 4-2s4-.3 4-2c0-1.8.7-2 5.4-2 4.5 0 5.4-.3 5.9-2 .3-1.1 1.2-2 2-2s1.7-.9 2-2c.3-1.1 1.2-2 2.1-2 .9 0 1.6-.7 1.6-1.5 0-1.2 1.3-1.5 5.9-1.5 5.3 0 6-.2 6.3-2.2.2-1.6 1.6-2.6 5.6-3.9 3-1 6.9-3.2 8.8-4.9 1.9-1.6 4.1-3 4.9-3 .8 0 2.9-1.3 4.7-2.9 1.8-1.5 5.1-3.7 7.3-4.9 2.2-1.1 4.9-2.9 5.9-4.1 1.2-1.3 3.1-2.1 5.3-2.1 2.2 0 3.3-.5 3.3-1.5 0-.8 2.2-2.6 4.8-3.9 2.7-1.3 5.4-3.2 6.1-4 .8-.9 2.4-1.6 3.7-1.6 1.3 0 2.8-.9 3.4-2 .6-1.2 2.1-2 3.5-2 1.8 0 2.5-.5 2.5-1.9 0-1.5 1.3-2.4 5.5-3.7 4.1-1.3 5.5-2.2 5.5-3.6 0-1 .8-2.1 1.8-2.4.9-.3 2.4-1 3.2-1.5.8-.5 2.7-1.5 4.3-2.2 1.5-.6 2.7-1.7 2.7-2.4 0-.8 1.4-1.3 4-1.3 3.3 0 4-.3 4-2 0-1.3.7-2 1.8-2s2.7-.9 3.7-2 2.6-2 3.7-2 1.8-.7 1.8-2c0-1.7.7-2 4-2h4v-4c0-3.5.3-4 2.3-4 1.3 0 3.2-.9 4.2-2s2.8-2 4-2c1.3 0 2.8-.7 3.6-1.6 1.5-1.9 10.2-6.4 12.3-6.4.8 0 1.8-1 2.2-2.2 1.1-3.6 10.4-12.8 12.9-12.8 1.2 0 3-.9 4-2s2.8-2 4-2c1.2 0 3-.9 4-2s2.5-2 3.4-2c.9 0 2.5-1.7 3.6-3.8 1.2-2.2 2.9-3.8 4.1-4 1.2-.2 3.6-1.9 5.4-3.8 1.9-1.9 4.4-3.4 5.7-3.4 1.6 0 2.8-1.1 4.3-4 1.2-2.4 2.8-4 3.8-4s3.6-1.8 5.7-4 4.9-4 6-4c1.2 0 3.4-1.4 5.1-3.1 1.6-1.7 4.3-3.7 5.9-4.4 2.3-1 3.4-2.6 4.8-6.4 1.7-4.9 1.9-5.1 5.5-5.1 3.1 0 4.5-.7 7.7-4 2.1-2.2 4.9-4 6-4 1.5 0 3.4-1.8 6.1-5.7 2.3-3.4 4.8-5.9 6-6.1 1.2-.2 4.2-3.3 7.5-7.7 5.1-7.1 5.6-7.4 9.4-7.5 3.8 0 4.3-.4 10.2-8 3.7-4.8 7-8 8.1-8 1.1 0 6.3-5.1 12.8-12.7 6.2-7.1 21.2-22.1 34.6-34.5 13.7-12.7 35.9-34.9 53.1-53.1 16.2-17.1 32.9-34.6 37.1-38.7 4.8-4.7 7.6-8.2 7.6-9.6 0-1.5 1.7-3.2 5.5-5.8 5.1-3.4 5.5-3.9 5.5-7.6 0-3.5.3-4 2.3-4 1.3 0 3.4-1.1 4.7-2.5 1.2-1.3 3.8-2.9 5.6-3.5 2.5-.9 3.4-1.7 3.4-3.3 0-1.2 1.6-4.6 3.6-7.6s4-6.5 4.3-7.9c.5-2 1.9-3 5.7-4.2 3.5-1.2 5-2.2 5.2-3.7.2-1.2 1.2-2.9 2.3-3.9 1-.9 1.9-2.6 1.9-3.6 0-1.1.9-2.2 2-2.5 1.1-.3 2-1.3 2-2.2 0-.9 1.8-3.5 4-5.6 2.2-2.1 4-4.7 4-5.7s1.6-2.6 4-3.8c3-1.5 4-2.6 4-4.5 0-1.4.8-2.9 2-3.5 1.1-.6 2-2.1 2-3.4 0-1.7 1.5-3.3 5.5-6 3.3-2.2 5.5-4.3 5.5-5.5 0-1 .9-2.6 2-3.6s2-2.8 2-4c0-1.3.7-2.8 1.6-3.6.8-.7 2.7-3.4 4-6.1 1.7-3.3 3.1-4.8 4.4-4.8 1.3 0 2-.7 2-1.8s.9-2.7 2-3.7 2-2.8 2-4c0-1.5 1.1-2.7 3.5-3.8 2.1-1 3.5-2.4 3.5-3.5s.9-2.7 1.9-3.6c1.1-1 2.1-2.8 2.3-4 .2-1.2 1.8-2.9 4-4.1 2.5-1.3 3.8-2.7 3.8-4.1 0-1.1.9-2.9 2-3.9s2-2.6 2-3.7.7-1.8 2-1.8c1.5 0 2-.7 2-2.5 0-1.4.8-2.9 2-3.5 1.1-.6 2-2.1 2-3.3 0-1.4 1.7-3.9 4-6.2 2.2-2.2 4-4.9 4-6.1 0-1.2.7-2.7 1.5-3.4.8-.7 1.5-2.2 1.5-3.4 0-1.3 1.1-3.3 2.4-4.5 1.3-1.2 3.1-4 4.1-6.2 1.2-2.5 2.5-3.9 3.6-3.9 1.3 0 3-2.3 5.8-7.8 2.1-4.2 4.8-8.6 6-9.6 1.2-1.1 2.1-2.7 2.1-3.8 0-1.1.7-1.8 2-1.8 1.8 0 2-.7 2-6v-6h3.5c3.3 0 3.5-.2 3.5-3.4 0-1.8.7-3.9 1.6-4.7.8-.7 2.6-3.3 3.9-5.8 1.2-2.5 3.2-5.4 4.3-6.5 1.2-1 3.1-4.7 4.2-8.1 1.1-3.4 3-7.1 4-8 1.1-1 2-2.9 2-4.2 0-1.6.6-2.3 2-2.3 1.6 0 2-.7 2-3.5s.4-3.5 2-3.5c1.4 0 2-.7 2-2.3 0-1.3.9-3.2 2-4.2 1.3-1.2 2-3.1 2-5.7 0-2.7.4-3.8 1.5-3.8s1.5-1.1 1.5-3.6c0-2.7.5-3.7 2-4.1 1.1-.3 2-1.1 2-1.8 0-.6.9-2 2-3s2-2.9 2-4.2c0-1.6.6-2.3 2-2.3 1.7 0 2-.7 2-4s.3-4 2-4 2-.7 2-4 .3-4 2-4 2-.7 2-4 .3-4 2-4c1.1 0 2-.7 2-1.5s.9-1.5 2-1.5c1.8 0 2-.7 2-6s.2-6 2-6c1.7 0 2-.7 2-4 0-2.8.4-4 1.4-4 1 0 1.6-1.3 1.8-3.8.2-2.9.7-3.8 2.5-4 1.7-.3 2.5-1.5 3.8-5.8 1.2-4.2 2-5.4 3.5-5.4 1.8 0 2-.7 2-6 0-5.1.3-6 1.8-6 1.4 0 2.1-1.3 3-5.8 2.3-11 3.2-13.2 5.2-13.2 1.7 0 2-.7 2-4s.3-4 1.9-4c2.1 0 5.1-7.1 5.1-12.2 0-2 .5-2.8 1.8-2.8s2.3-1.9 4-7.4c1.2-4.1 2.2-8.4 2.2-9.6 0-1.3.8-2.4 2-2.7 1.7-.5 2-1.4 2-5.9 0-4.7.2-5.4 2-5.4s2-.7 2-6 .2-6 2-6c1.3 0 2-.7 2-2s.7-2 2-2c1.7 0 2-.7 2-4 0-2.3.9-5.8 2-8s2-4.6 2-5.5c0-.8.9-1.5 2-1.5 1.8 0 2-.7 2-6 0-5.1.3-6 1.8-6s5-10 21-61.3c13-41.3 19.3-62.6 19.2-65.5 0-3.6.4-4.5 2-4.9 1.5-.4 2-1.4 2-3.9 0-2.7.4-3.4 2-3.4 1.8 0 2-.7 2-7.4 0-6.4 1.6-13.5 11.6-49.8 11.1-40.7 15.4-59.6 15.4-68.5 0-2.2 2.7-15.2 6-28.8 3.7-15.3 6-26.8 6-30.3 0-3.2 2.7-19.9 6-37.2 5.8-30.6 6-32 6-48.3 0-16 .1-16.7 2-16.7s2-.7 2-23.5c0-20.2.2-23.5 1.5-23.5s1.5-2.1 1.5-13.3c0-7.3.9-23.4 2-35.7 1.7-19.7 2-30.8 2-90 0-59.8-.3-69.8-2-88-1.1-11.3-2-27.6-2-36.3 0-13.3-.2-15.7-1.5-15.7s-1.5-3-1.5-21c0-20.3-.1-21-2-21s-2-.7-2-19.5-.1-19.5-2-19.5-2-.7-2-15.5-.1-15.5-2-15.5-2-.7-2-13.5-.1-13.5-2-13.5c-1.8 0-2-.7-2-8s-.2-8-2-8c-1.9 0-2-.7-2-11.5s-.1-11.5-2-11.5c-1.8 0-2-.7-2-6.3 0-4.4-4.3-25-15.1-72.5-14.8-65.3-15.2-66.9-29-110-7.7-24.3-13.9-45.3-13.9-47.4 0-3.1-.4-3.8-2-3.8-1.8 0-2-.7-2-6s-.2-6-2-6-2-.7-2-5.5c0-4.3-.3-5.5-1.5-5.5-2 0-3-2.7-4.6-12.3-1.2-7-1.5-7.7-3.6-7.7-1.9 0-2.3-.5-2.3-2.9 0-1.6-.7-4.8-1.5-7.1s-1.5-5.3-1.5-6.6c0-1.7-.6-2.4-2-2.4-1.8 0-2-.7-2-8s-.2-8-2-8c-1.6 0-2-.7-2-3.5s-.4-3.5-2-3.5c-1.3 0-2-.7-2-1.9 0-1-.9-2.1-2-2.4-1.5-.4-2-1.4-2-4.1 0-2-.9-5.4-2-7.6-1.1-2.2-2-5.7-2-8 0-3.3-.3-4-2-4-1.8 0-2-.7-2-5.4 0-4.5-.3-5.4-2-5.9-1.5-.4-2-1.4-2-4.1 0-2.9-.4-3.6-2-3.6-1.8 0-2-.7-2-6 0-5.1-.3-6-1.8-6-2 0-5.2-5.6-5.2-9 0-1.3-.7-2-2-2-1.6 0-2-.7-2-3.8 0-2.1-.9-6.6-2.1-10-1.6-4.7-2.5-6.2-4-6.2s-1.9-.7-1.9-3.4c0-2.5-.5-3.5-2-3.9-1.5-.4-2-1.4-2-4s-.5-3.6-2-4c-1.2-.3-2-1.4-2-2.6 0-1.2-.9-3.9-2-6.1-1.1-2.2-2-4.6-2-5.5 0-.8-.7-1.5-1.5-1.5-1 0-1.5-1.1-1.5-3.5 0-2.8-.4-3.5-2-3.5-1.8 0-2-.7-2-6s-.2-6-2-6c-1.3 0-2-.7-2-2s-.7-2-2-2c-1.7 0-2-.7-2-4s-.3-4-2-4-2-.7-2-3.9c0-2.3-.6-4.4-1.6-5.2-1.9-1.6-6.4-10.2-6.4-12.4 0-.8-.9-1.5-2-1.5-1.3 0-2-.7-2-2s-.7-2-2-2c-1.7 0-2-.7-2-4.4 0-2.6-.6-4.8-1.5-5.6-.8-.7-1.5-2.1-1.5-3.1 0-1.2-.7-1.9-2-1.9-1.1 0-2-.7-2-1.5 0-2.1-3.8-9.5-6.1-12-1-1.2-2.8-4.8-3.9-8s-2.9-6.8-3.9-8c-1-1.1-2.8-4.7-4-7.9-1.2-3.3-3.2-7.1-4.4-8.6-1.2-1.5-3-4.2-3.9-5.9-1-1.7-2.5-3.1-3.6-3.1-1.4 0-2.3-1.4-3.6-5.5-1.3-4.2-2.2-5.5-3.7-5.5-1.6 0-1.9-.7-1.9-4s-.3-4-2-4-2-.7-2-3.8c0-2.6-.7-4.5-2-5.7-1.1-1-2-2.6-2-3.6 0-1.3-.9-1.9-3.7-2.1l-3.8-.3-.3-5.6c-.2-4.7-.6-5.8-2.2-6.2-1.1-.3-2-1.4-2-2.5 0-1-.9-2.7-2-3.7s-2-2.6-2-3.7c0-1-.7-1.8-1.5-1.8s-1.5-.8-1.5-1.8c0-1.2-1.4-2.5-4-3.7-2.9-1.3-4-2.4-4-4 0-1.2-.9-3-2-4s-2-2.6-2-3.7-.7-1.8-2-1.8-2-.7-2-2c0-2.7-3.3-9-5.9-11.4-1.2-1.1-2.1-2.9-2.1-4 0-1.4-1.3-2.8-3.8-4.1-2.2-1.2-3.8-2.9-4-4.2-.2-1.2-1-2.7-1.8-3.3-.8-.7-1.4-2.2-1.4-3.5 0-1.2-.9-3-2-4s-2-2.9-2-4.2c0-2-.5-2.3-4-2.3-3.9 0-4-.1-4-3.4 0-2.5-.5-3.5-2-3.9-1.5-.4-2-1.4-2-4.1 0-3.1-.5-3.8-4-5.8-2.6-1.5-4-3-4-4.4 0-1.1-.9-2.9-2-3.9s-2-2.6-2-3.7-1.4-2.5-3.5-3.5-3.5-2.4-3.5-3.5c0-1-1.7-2.7-4-4-3.5-2-4-2.7-4-6 0-3.4-.4-4-4-5.8-2.6-1.3-4.7-3.4-6-6-1.3-2.6-2.7-4-4-4-1.6 0-2-.7-2-3.8 0-3-.7-4.5-3.5-7.2-2-1.9-3.5-4.4-3.5-5.7 0-1.6-1.6-3.3-6-6.3-3.5-2.4-6-4.8-6-5.8s-1.8-3.6-4-5.7-4-4.9-4-6c0-1.5-2.3-3.8-7.5-7.6-5-3.6-7.5-6.1-7.5-7.5 0-1.4-2.6-3.9-8-7.9-5.6-4.1-8-6.5-8-8 0-1.1-1.8-3.8-3.9-5.9-2.2-2.1-8.3-10-13.7-17.5-8.6-11.9-11.2-14.8-21.6-23.4-7.4-6.1-11.8-10.4-11.8-11.6 0-1.2-1.9-3.1-5.1-5.2-3.1-1.9-10.7-9.5-19.1-19.1-13.2-14.9-14.2-15.8-17.6-15.8h-3.7l9.3 9.3c5.4 5.5 9.2 10.1 9.2 11.2 0 1.2 4 6 10 12 6.5 6.4 10 10.7 10 12.1 0 1.5 2.7 4.3 9.5 9.5 6.5 5.1 9.5 8 9.5 9.4 0 1.2 2.5 4.6 6 8 3.3 3.3 6 6.7 6 7.7 0 1.1.7 1.8 2 1.8s2 .7 2 2 1.4 2.7 4 4c2.9 1.5 4 2.7 4 4.3 0 1.3 1.5 3.8 3.5 5.7 1.9 1.9 3.5 4.2 3.5 5.2s2.5 3.4 6 5.8c4.3 2.9 6 4.7 6 6.3 0 1.5 2.8 5 8 10.2 4.4 4.4 8 8.6 8 9.3 0 .8.9 2.5 2 3.9s2 3.3 2 4.2c0 1 1.6 3.2 3.5 5.1 1.9 1.9 3.5 4.4 3.5 5.5 0 1.6 1.1 2.7 4 4 2.9 1.3 4 2.4 4 4 0 1.2.8 2.9 1.9 3.9 1 .9 2.6 3.4 3.6 5.6 1.4 3 2.4 4 4.2 4 1.7 0 2.3.6 2.3 2.3 0 1.3.9 3.2 2 4.2s2 2.6 2 3.7 1.4 2.5 3.5 3.5c2.4 1.1 3.5 2.4 3.5 3.8 0 1.1 1.8 3.9 4 6s4 4.8 4 6c0 1.2 1.8 3.9 4 6s4 4.7 4 5.7c0 1.1.7 1.8 2 1.8 1.6 0 2 .7 2 3.4 0 2.5.5 3.5 2 3.9 1.1.3 2 1.4 2 2.4s1.8 3.7 4 5.8c2.2 2.2 4 4.9 4 6.1 0 1.2.7 2.7 1.5 3.4.8.7 1.5 2.2 1.5 3.5 0 1.2.9 3 2.1 4.1 1.2 1 3.2 3.9 4.4 6.4 1.3 2.5 3.9 6.1 5.9 7.9 2 1.9 3.6 4.5 3.6 5.6 0 1.2 1.1 3.2 2.4 4.4 1.4 1.3 3 3.6 3.6 5.1.7 1.7 2.1 3 3.3 3.2 1.9.3 2.2 1 2.5 6l.3 5.8h3.4c3.4 0 3.5.1 3.5 3.8 0 2.7.7 4.5 2.1 5.8 1.2 1 3.2 4 4.4 6.5 1.3 2.5 3 5.1 3.9 5.8.8.7 2.4 4.1 3.6 7.6 1.1 3.4 3 7.1 4 8 1.1 1 2 2.6 2 3.7s.7 1.8 2 1.8c1.6 0 2 .7 2 3.4 0 2.5.5 3.5 2 3.9 1.3.3 2 1.4 2 3 0 1.3.7 3 1.5 3.7.9.7 1.5 2.9 1.5 5.1 0 3.1.4 3.8 2.2 4.1 1.6.2 2.6 1.7 4 5.7 1 3 2.7 6.4 3.8 7.6 1.1 1.2 2 2.9 2 3.8 0 1 .8 1.7 2 1.7 1.7 0 2 .7 2 4s.3 4 2 4 2 .7 2 4 .3 4 2 4c1.3 0 2 .7 2 2s.7 2 2 2c1.6 0 2 .7 2 3.4 0 2.5.5 3.5 2 3.9 1.7.4 2 1.4 2 6.1 0 4.3.3 5.6 1.5 5.6.8 0 1.5.7 1.5 1.5 0 .9 1.8 5.1 4 9.5s4 8.9 4 10c0 1.3.7 2 2 2 1.7 0 2 .7 2 4 0 3.2.4 4 1.8 4 1.3 0 2.4 1.7 4 6.2 1.2 3.5 2.2 7.1 2.2 8 0 1.1.8 1.8 2 1.8 1.7 0 2 .7 2 4 0 2.3.9 5.8 2 8s2 4.6 2 5.5c0 .8.9 1.5 2 1.5 1.7 0 2 .7 2 4 0 2.9.4 4 1.5 4 1 0 1.5 1.1 1.5 3.5 0 2.8.4 3.5 2 3.5 1.7 0 2 .7 2 4 0 2.3.9 5.8 2 8s2 5.7 2 8c0 3.3.3 4 2 4 1.8 0 2 .7 2 5.4 0 4.5.3 5.4 2 5.9 1.1.3 2 1.2 2 2s.9 1.7 2 2c1.5.4 2 1.4 2 4.1 0 2.9.4 3.6 2 3.6 1.8 0 2 .7 2 8s.2 8 2 8c1.4 0 2 .7 2 2.2 0 3.8 4.4 16.8 5.8 16.8.7 0 1.2 1.5 1.2 4 0 3.3.3 4 2 4 1.8 0 2 .7 2 5.5s.2 5.5 2 5.5c1.7 0 2 .7 2 4.5 0 2.5.9 6.8 2 9.7 1.1 2.9 2 6.9 2 8.9 0 2.8.5 3.8 2 4.2 1.7.4 2 1.4 2 6.1 0 4.9.2 5.6 2 5.6 1.7 0 2 .7 2 4s.3 4 2 4 2 .7 2 5c0 2.7.9 7.2 2 10s2 6.6 2 8.5c0 2.8.4 3.5 2 3.5 1.8 0 2 .7 2 7.5 0 6 .3 7.5 1.5 7.5s1.5 1.6 1.5 8c0 7.3.2 8 2 8s2 .7 2 7.5.2 7.5 2 7.5c2.1 0 2.6 1.3 5.4 14.1.9 4.1 2.8 12.6 4.2 18.9 1.4 6.3 4.1 18.9 6 28 1.9 9.1 6.6 31.3 10.5 49.5 7.8 36.2 10.9 55.7 10.9 68.1 0 6.4 1.3 13.5 6 33.7l6 25.7v19c0 18.3.1 19 2 19s2 .7 2 16.2c0 19.6 2.2 66.2 5.1 108.2 2.2 30.3 2.2 31.4.5 56-.9 13.8-2.6 35.1-3.7 47.4-1.3 15.8-1.9 30.8-1.9 51.8 0 28.7-.1 29.6-2 30.1s-2 1.4-2 21.5-.1 21-2 21.5-2 1.4-2 17.4c0 16.2-.1 16.9-2 16.9-1.8 0-2 .7-2 6s-.2 6-2 6c-1.9 0-2 .7-2 15.5s-.1 15.5-2 15.5-2 .7-2 11.5-.1 11.5-2 11.5-2 .7-2 12-.1 12-2 12-2 .7-2 9.9c0 9.8-.1 10.1-15.5 62.2-13.8 46.5-15.5 53.2-15.5 59.6 0 5.8-.3 7.3-1.5 7.3-1.1 0-1.5 1.3-1.5 5.4 0 4.3-2.5 12.7-12 40.6-7.2 21.2-12 36.8-12 39.1 0 3.2-.3 3.9-2 3.9-1.8 0-2 .7-2 6s-.2 6-2 6c-1.7 0-2 .7-2 4 0 2.5-.5 4-1.2 4-1.7.1-5.8 12.7-5.8 18 0 3.3-.4 4.3-2 4.7-1.7.5-2 1.4-2 6s-.3 5.6-2 6c-1.7.5-2 1.4-2 5.9 0 4.7-.2 5.4-2 5.4-1.3 0-2 .7-2 2s-.7 2-2 2c-1.7 0-2 .7-2 4s-.3 4-2 4-2 .7-2 4c0 2.3-.9 5.8-2 8s-2 5.5-2 7.5c0 2.8-.4 3.5-2 3.5-1.7 0-2 .7-2 4 0 2.9-.4 4-1.5 4s-1.5 1.1-1.5 3.6c0 2.7-.5 3.7-2 4.1-1.5.4-2 1.4-2 3.9 0 2.7-.4 3.4-2 3.4-1.8 0-2 .7-2 6s-.2 6-2 6c-2.2 0-4.8 5.1-5.7 11.3-.4 2.8-1 3.7-2.4 3.7-1.5 0-1.9.8-1.9 4 0 3.3-.3 4-2 4-1.3 0-2 .7-2 2 0 1.2-.9 3.8-2 6s-2 4.8-2 6c0 1.3-.7 2-2 2-1.8 0-2 .7-2 5.5 0 4.2-.3 5.5-1.5 5.5-1.1 0-1.5 1.1-1.5 4 0 3.3-.3 4-1.9 4-1.6 0-2 .8-2.3 3.7-.2 3-.8 3.9-2.4 4.1-2.2.3-5.4 5.8-5.4 9.2 0 1.3-.7 2-2 2-1.8 0-2 .7-2 6s-.2 6-2 6c-1.3 0-2 .7-2 2s-.7 2-2 2c-1.7 0-2 .7-2 4s-.3 4-2 4c-1.6 0-2 .7-2 3.5s-.4 3.5-2 3.5c-1.7 0-2 .7-2 4 0 2.9-.4 4-1.5 4-.8 0-1.5.9-1.5 2 0 1.3-.7 2-2 2-1.8 0-2 .7-2 5.6 0 4.7-.3 5.7-2 6.1-1.1.3-2 1.2-2 1.9 0 .8-1.1 1.9-2.4 2.3-1.5.6-2.5 2-3 4.2-1.7 8.6-2.7 10.9-4.6 10.9-1.3 0-2.8 1.6-4.4 4.9-1.4 2.7-3.2 5.1-4.1 5.4-1 .5-1.5 2-1.5 5 0 4-.3 4.5-3.5 6-3.1 1.5-3.5 2.1-3.5 5.7 0 3.5-.3 4-2.3 4-2 0-2.6.9-4.1 5.6-1.2 3.8-2.4 5.8-3.7 6.1-1 .3-1.9 1.3-1.9 2.3 0 .9-.9 2.5-2 3.5s-2 2.8-2 4c0 1.2-.9 3-2.1 4.1-1.2 1-3.2 3.9-4.4 6.4-1.3 2.5-3.7 5.8-5.4 7.4-1.7 1.7-3.1 3.8-3.1 4.8s-.9 2.7-2 3.8c-1.1 1.1-2 2.9-2 4 0 1.3-.7 2-2 2s-2 .7-2 1.8-.9 2.7-2 3.7-2 2.9-2 4.2c0 1.6-.6 2.3-2 2.3-1.6 0-2 .7-2 3.6 0 2.7-.5 3.7-2 4.1-1.1.3-2 1.3-2 2.3 0 1-1.6 2.4-4 3.5-3.7 1.7-4 2.1-4 5.7 0 3.1-.3 3.8-2 3.8-1.4 0-2 .7-2 2.4 0 1.9-.8 2.7-3.5 3.6-2.6.9-3.5 1.7-3.5 3.4 0 1.3-.9 3.1-2 4.1-1.1 1-2 2.8-2 4 0 1.6-1.1 2.7-4 4-2.9 1.3-4 2.4-4 4 0 1.2-.9 3-2 4s-2 2.8-2 4c0 1.1-1.8 3.8-4 6-2.2 2.1-4 4.7-4 5.7 0 1.1-1.4 2.5-3.5 3.5s-3.5 2.4-3.5 3.5c0 1-.9 2.7-2 3.8-1.1 1.1-2 2.8-2 3.8 0 .9-3.6 5.3-8 9.7-5.1 5.1-8 8.7-8 10.1 0 1.6-1.7 3.3-6 6-4.1 2.7-6 4.5-6 6 0 1.1-1.6 3.5-3.5 5.4-1.9 1.9-3.5 4.4-3.5 5.6 0 1.6-1.7 3.3-6 6-5.7 3.7-6 4.1-6 7.9 0 3.8-.3 4.2-6 7.9-4.3 2.7-6 4.4-6 6 0 1.5-2.7 4.2-9.5 9.5-6.8 5.2-9.5 8-9.5 9.5 0 1.4-3.5 5.6-10.1 12.1-5.5 5.5-19.4 20.1-30.7 32.4-12.8 13.9-29.8 30.8-44.7 44.5-15.4 14.1-27.4 26.1-33.4 33.3-6.6 7.9-10 11.3-11.5 11.3-1.3 0-4.5 2.4-8.1 6-3.3 3.3-6.7 6-7.7 6s-4.1 3.2-7.4 7.5c-3.6 4.8-6.3 7.5-7.6 7.5-3.9 0-9.7 4-11.8 8-1.5 2.9-2.7 4-4.3 4-1.4 0-3.9 1.6-6.2 4-2.1 2.2-4.7 4-5.7 4-1.1 0-1.8.7-1.8 2 0 1.1-.7 2-1.5 2s-1.5.6-1.5 1.4c0 1-1.3 1.6-4.2 1.8-4.1.3-4.2.4-6.1 6-1.4 4.4-2.3 5.8-3.8 5.8-1 0-3.7 1.8-5.9 4s-4.9 4-6 4c-1.3 0-2.7 1.4-4 4-1.2 2.3-2.8 4-3.8 4-.9 0-2.6.7-3.6 1.5-1.1.8-2.7 1.5-3.6 1.5-.9 0-3.4 1.8-5.5 4-2.3 2.4-4.8 4-6.2 4-1.6 0-2.8 1.1-4.3 4-1.3 2.5-2.7 4-3.9 4-1 0-2.6.9-3.6 2s-2.7 2-3.7 2c-1.1 0-3.1.9-4.5 2s-3.3 2-4.2 2c-1 0-2.5 1.6-3.4 3.5-1 2.1-2.4 3.5-3.5 3.5s-2.7.9-3.7 2-2.9 2-4.2 2c-1.6 0-2.3.6-2.3 2 0 1.3-.7 2-2 2s-2 .7-2 2c0 1.7-.7 2-3.8 2-2.6 0-4.5.7-5.7 2-1 1.1-2.8 2-4 2-1.6 0-2.7 1.1-4 4-1.2 2.6-2.5 4-3.7 4-1.1 0-1.8.7-1.8 1.8 0 1.4-1.5 2.3-6 3.7-4.5 1.4-6 2.3-6 3.7 0 1.1-.7 1.8-1.8 1.8s-2.7.9-3.7 2-2.6 2-3.7 2-1.8.7-1.8 2c0 1.7-.7 2-4 2s-4 .3-4 2c0 1.3-1.5 2.7-4.8 4.4-2.7 1.3-5.4 3.2-6.1 4-.8.9-2.8 1.6-4.6 1.6-2.4 0-3.4.5-3.8 2-.4 1.5-1.4 2-4.1 2-3.4 0-3.6.1-3.6 3.5v3.5h-6c-5.3 0-6 .2-6 2 0 1.2-1.6 2.8-4.4 4.5-2.4 1.4-5 3.2-5.6 4-.7.9-3 1.5-5.4 1.5-3.7 0-4.3.4-6.1 3.8-1.7 3.1-2.6 3.7-5.7 4-3 .3-3.8.7-3.8 2.3 0 1.6-.7 1.9-4.4 1.9-2.6 0-4.8.6-5.6 1.5-.7.8-2.3 1.5-3.6 1.5-1.7 0-2.4.6-2.4 2 0 1.1-.7 2-1.5 2-2.2 0-10.9 4.5-12.5 6.5-1.8 2.2-8.4 5.5-11 5.5-1.3 0-2 .7-2 2 0 1.6-.7 2-3.4 2-2.5 0-3.5.5-3.9 2-.4 1.5-1.4 2-4 2-2.5 0-3.6.5-4 1.9-.5 2-8.2 5.1-12.9 5.1-2.1 0-2.8.5-2.8 2 0 1.7-.7 2-4 2s-4 .3-4 2c0 1.6-.7 2-3.5 2s-3.5.4-3.5 2c0 1.7-.7 2-4 2s-4 .3-4 2c0 1.8-.7 2-5.9 2-5.4 0-6 .2-6.3 2.2-.2 1.7-1.6 2.8-5.5 4.3-2.9 1.1-5.4 2.8-5.6 3.7-.3 1.1-1.5 1.8-3 1.8-1.3 0-4.4.7-6.7 1.5s-5.5 1.5-7.1 1.5c-2.1 0-2.9.5-2.9 1.8s-1.7 2.2-7.2 3.7c-6.1 1.7-7.4 2.4-7.6 4.3-.3 1.8-1 2.2-4.3 2.2-3.2 0-3.9.3-3.9 2 0 1.8-.7 2-6 2s-6 .2-6 2c0 1.7-.7 2-4 2s-4 .3-4 2c0 1.8-.7 2-5.4 2-4.5 0-5.4.3-5.9 2-.4 1.5-1.4 2-4 2s-3.6.5-4 2c-.4 1.7-1.4 2-6.1 2-3.8 0-5.6.4-5.6 1.2 0 1.3-13.2 5.8-16.9 5.8-1.2 0-2.1.8-2.3 2.1-.3 1.9-7.3 4.3-62.6 21.5-34.3 10.7-63.8 19.4-65.7 19.4-2.4 0-3.4.5-3.8 2-.5 1.8-1.4 2-8.1 2-6.9 0-7.6.2-7.6 2s-.7 2-6 2-6 .2-6 2c0 1.7-.7 2-4.4 2-2.5 0-9.1 1.1-14.8 2.5-5.7 1.3-40.7 8.3-77.9 15.5-52.1 10-69.4 13-75.6 13-5.1 0-20.3 2-41.2 5.5-27.7 4.6-35.2 5.5-45.6 5.5-11.8 0-12.5.1-12.5 2s-.7 2-12.7 2c-7.1 0-22.5.9-34.3 2-29.3 2.7-81 2.7-132 0-21.6-1.1-51-2-69.2-2-31.1 0-31.8 0-31.8-2 0-1.9-.7-2-13.2-2-19.9 0-44.7-2.9-115.9-13.5l-64.6-9.5-52.3-15.5c-48.2-14.3-53.1-15.5-60.3-15.5-7 0-7.9-.2-8.4-2-.4-1.6-1.4-2-4.7-2-3.6 0-17.7-2.1-24.3-3.5-1.5-.3-2.3-1.3-2.3-2.5 0-1.3-.7-2-2-2s-2-.7-2-2c0-1.8-.7-2-7.5-2-6 0-7.5-.3-7.5-1.5s-1.3-1.5-5.6-1.5c-4.7 0-5.7-.3-6.1-2-.5-1.7-1.4-2-5.9-2-4.7 0-5.4-.2-5.4-2s-.7-2-8-2-8-.2-8-2-.7-2-5.6-2c-4.7 0-5.7-.3-6.1-2-.3-1.1-1.2-2-1.9-2-.8 0-1.4-.9-1.4-2 0-1.8-.7-2-6-2s-6-.2-6-2c0-1.4-.7-2-2.2-2-5.1.1-20.7-4.4-21.1-6-.2-1-3.7-2.5-9.8-4.3-27.5-8.2-28.9-8.7-28.9-10.7 0-1.7-.7-2-4-2s-4-.3-4-2-.7-2-4-2c-5.3 0-12-3.4-12-6 0-1.8-.7-2-5.5-2s-5.5-.2-5.5-2c0-1.7-.7-2-4-2-2.8 0-4-.4-4-1.5 0-1-1.5-1.5-5.7-1.7-5-.3-5.8-.6-6.1-2.4-.2-1.5-1.7-2.5-5.7-3.8-4.2-1.3-5.5-2.2-5.5-3.7 0-1.6-.7-1.9-4-1.9s-4-.3-4-2-.7-2-4-2-4-.3-4-1.9c0-1.6-1.6-2.3-9.5-4.2-7.6-1.8-9.5-2.6-9.5-4.1 0-1.4-.8-1.8-4-1.8-2.9 0-4-.4-4-1.5 0-.8-.9-1.5-2-1.5-1.3 0-2-.7-2-2 0-1.6-.7-2-3.6-2-2.7 0-3.7-.5-4.1-2-.5-1.7-1.4-2-5.8-2-4.7 0-5.4-.3-5.7-2.1-.2-1.7-1.6-2.6-5.8-3.8-4.3-1.3-5.6-2.2-5.8-3.9-.3-1.8-1-2.2-4.3-2.2-3.2 0-3.9-.3-3.9-2s-.7-2-4-2-4-.3-4-2c0-1.3-.7-2-2-2-1.1 0-2-.7-2-1.5 0-1.2-1.3-1.5-5.5-1.5-4.8 0-5.5-.2-5.5-2 0-1.7-.7-2-4-2h-4v-8h-5.6c-4.8 0-5.7-.3-6.1-2-.3-1.2-2.2-2.9-4.2-3.9-2-1.1-4.5-2.8-5.5-4-1.4-1.5-3.1-2.1-6.1-2.1-3.7 0-4.3-.3-5.8-3.4-1.4-2.9-2.2-3.5-5.4-3.8-2.9-.2-3.9-.8-4.1-2.4-.2-1.5-3.4-3.5-12.3-8-6.7-3.2-12.5-6.7-13-7.7-.5-.9-2.1-1.7-3.4-1.7-1.7 0-2.5-.6-2.5-1.8 0-1.7-10.9-9.2-13.4-9.2-.7 0-2.1-.9-3.1-2s-2.9-2-4.1-2c-1.7 0-2.9-1.1-4.4-4-1.3-2.5-2.7-4-3.9-4-1 0-2.6-.9-3.6-2s-2.9-2-4.2-2c-1.6 0-2.3-.6-2.3-2 0-1.3-.7-2-2-2-2.7 0-9-3.3-11.4-5.9-1.1-1.2-2.9-2.1-4.1-2.1-1.6 0-2.6-.9-3.5-3.1-.7-1.7-2.4-3.5-3.7-4-1.2-.4-2.3-1.5-2.3-2.4 0-.8-.8-1.5-1.8-1.5-1.1 0-2.7-.9-3.7-1.9-1-1.2-3.3-2.1-5.9-2.3-3.6-.3-4.3-.8-6.1-4-1.3-2.5-2.7-3.8-4.1-3.8-1.5 0-2.6-1.2-3.9-4-1.3-2.9-2.4-4-4-4-1.3 0-2.8-.6-3.5-1.4-.6-.8-2.1-1.6-3.3-1.8-1.3-.2-3-1.8-4.2-4-1.8-3.4-2.4-3.8-5.7-3.8-3.1 0-3.8-.4-3.8-2 0-1.3-.7-2-2-2s-2-.7-2-1.9c0-1.3-.8-2.1-2.2-2.3-1.4-.2-3.7-2.4-6.2-6.1-2.7-3.9-4.6-5.7-6.1-5.7-1.2 0-3.6-1.6-5.5-3.5s-4.2-3.5-5.3-3.5c-1 0-2.1-.9-2.4-2-.3-1.1-1.3-2-2.3-2-.9 0-2.5-.9-3.5-2s-2.6-2-3.6-2-3.5-2.5-6-6c-2.6-3.7-4.9-6-6-6-1.2 0-1.9-.7-1.9-1.8 0-1.2-1.4-2.5-3.9-3.7-2.8-1.2-4.4-2.8-5.6-5.6-1.3-2.8-2.4-3.9-3.9-3.9-1.2 0-3.9-1.8-6.1-4.1-4.3-4.4-10.2-7.9-13.3-7.9-1.2 0-4.9-3.5-9.7-9.2-4.3-5.1-18.9-20.6-32.5-34.3-13.7-13.8-33.8-34.8-44.8-46.8-12-13.1-24.5-25.6-31.3-31.3-7.3-6.1-11.5-10.4-11.7-11.8-.2-1.2-3.9-5.8-8.2-10.1-4.4-4.4-8-8.8-8-9.7 0-1.3-2.4-3-7.5-5.5l-7.5-3.7v-4.1c0-3.5-.6-4.7-4-8-2.2-2.1-4-4.7-4-5.7s-2.5-3.4-6-5.8c-4.4-3-6-4.7-6-6.3 0-1.3-1.5-3.8-3.5-5.7-1.9-1.9-3.5-4.2-3.5-5.2s-1.6-2.6-4-3.8c-2.4-1.2-4-2.8-4-3.8s-1.8-3.6-4-5.7c-2.2-2.2-4-4.9-4-6.1 0-1.5-1.1-2.6-4-3.9-2.9-1.3-4-2.4-4-4s-1.1-2.7-4-4c-3.2-1.4-4-2.4-4-4.4-.1-1.4-.7-3.7-1.5-5.1-.8-1.4-1.4-3.7-1.5-5.1 0-2-.8-3-3.2-4-4.8-1.9-12.8-9.7-12.8-12.4 0-1.2-.9-3-2-4s-2-2.8-2-4c0-1.2-.9-3-2-4s-2-2.6-2-3.7-.7-1.8-2-1.8c-1.7 0-2-.7-2-4.1 0-3.6-.3-4.1-3.5-5.5-2.3-.9-3.5-2.1-3.5-3.4 0-1.3-.7-2-2-2-2.1 0-6-6.3-6-9.7 0-2.3-7.9-10.3-10.2-10.3-1 0-1.8-.7-1.8-1.6 0-.9-.9-2.7-2-4.1-1.1-1.4-2-3.3-2-4.3 0-.9-.9-2.5-2-3.5s-2-2.6-2-3.7c0-1-.7-1.8-1.5-1.8-1.1 0-1.5-1.1-1.5-3.8 0-3.6-.3-4-4-5.7-2.9-1.3-4-2.4-4-4 0-1.2-.9-3-2-4s-2-2.6-2-3.7-.7-1.8-2-1.8c-1.8 0-2-.7-2-6s-.2-6-2-6c-1.2 0-2.7-1.4-4-3.8-2.1-3.8-7.3-11.5-11-16.4-1.2-1.6-2-4.1-2-6.7 0-3.6-.3-4.1-2.3-4.1-1.8 0-3-1.4-6-7.5-2.7-5.6-4.2-7.5-5.7-7.5-1.8 0-2-.7-2-6s-.2-6-2-6c-1.3 0-2-.7-2-2s-.7-2-2-2c-1.5 0-2.4-1.4-4-6.6-1.1-3.6-2-7.9-2-9.4 0-1.9-.6-2.9-2-3.3-1.1-.3-2-1.2-2-2.1 0-.9-.7-1.6-1.5-1.6s-1.5-.9-1.5-1.9c0-1.3-.8-2.1-2.2-2.3-1.8-.2-3.6-3.5-9.9-17.3-4.3-9.4-7.8-18-7.8-19.3-.1-1.5-.7-2.2-2.1-2.2-1.8 0-2-.7-2-5.4 0-4.5-.3-5.4-2-5.9-1.5-.4-2-1.4-2-4s-.5-3.6-2-4c-1.5-.4-2-1.4-2-4.1 0-2.5-.4-3.6-1.5-3.6-.8 0-1.5-.9-1.5-2 0-1.3-.7-2-2-2-1.8 0-2-.7-2-5.5 0-4.7-.3-5.5-1.9-5.5-1.5 0-2.4-1.5-4-6.2-1.2-3.4-2.1-7.9-2.1-10 0-3.1-.4-3.8-2-3.8-1.7 0-2-.7-2-4s-.3-4-2-4c-1.1 0-2-.6-2-1.4 0-.7-.9-1.6-2-1.9-1.6-.4-2-1.4-2-4.6 0-2.3-.9-5.9-2-8.1-1.1-2.2-2-5.5-2-7.5 0-2.8-.4-3.5-2-3.5s-2-.7-2-3.5c0-2.4-.5-3.5-1.5-3.5-1.2 0-1.5-1.3-1.5-5.9 0-5.4-.2-6-2.2-6.3-2-.3-3.1-3.1-9.8-25-6.3-20.9-7.8-24.8-9.5-25-1.7-.3-2-1.2-2.3-5.9-.2-4.7-.6-5.8-2.2-6.2-1.1-.3-2-1.2-2-2.1 0-.9-.8-1.6-2-1.6-1.8 0-2-.7-2-7.5 0-6-.3-7.5-1.5-7.5s-1.5-1.3-1.5-6c0-5.3-.2-6-2-6s-2-.7-2-6-.2-6-2-6-2-.7-2-7.5-.2-7.5-2-7.5c-1.3 0-2-.7-2-2s-.7-2-2-2c-1.8 0-2-.7-2-8s-.2-8-2-8-2-.7-2-5.4c0-4.5-.3-5.4-2-5.9-1.7-.4-2-1.4-2-6.9 0-5.2-2.7-15.9-15.5-60.2-15.1-52.4-15.5-54.1-15.5-63.2 0-8.7-.1-9.4-2-9.4s-2-.7-2-11.4c0-10.5-.1-11.4-2-11.9-1.8-.5-2-1.4-2-11.6 0-9.2-.3-11.1-1.5-11.1-1.3 0-1.5-2.2-1.5-13.5 0-12.8-.1-13.5-2-13.5-1.8 0-2-.7-2-8s-.2-8-2-8c-1.9 0-2-.7-2-13.5s-.1-13.5-2-13.5-2-.7-2-19.5-.1-19.5-2-19.5-2-.7-2-22.9c0-22-.1-22.9-2-23.4-2-.5-2-1.4-2-40.9 0-30.5-.5-46.4-2-65.4-1.9-24.9-1.9-25.4 0-49 1.5-18 2-33.2 2-61.9v-38l6-53.5c4.2-37.6 7.1-59.7 10-74.5 2.5-13 4-23.9 4-28.7 0-5 1.2-13.3 3.5-23.8 1.9-8.9 3.5-17.9 3.5-20 0-2.1 5.4-23.6 12-47.7 8.6-31.6 12.4-47.4 13.7-56.7 1.4-10.6 2.1-13 3.5-13.4 1.5-.3 1.8-1.5 1.8-5.9 0-4.6.3-5.6 2-6 1.8-.5 2-1.4 2-7.9 0-6.7.2-7.4 2-7.4s2-.7 2-8 .2-8 2-8 2-.7 2-5.5.3-5.5 2-5.5c2.1 0 3.1-2.6 5.2-13.8 1-4.8 1.7-6.2 3-6.2 1.6 0 1.8-1 1.8-7.5 0-6.8.2-7.5 2-7.5s2-.7 2-6c0-4.7.3-6 1.5-6s1.5-1.3 1.5-5.6c0-4.7.3-5.7 2-6.1 1.5-.4 2-1.4 2-3.9 0-2.7.4-3.4 2-3.4 1.8 0 2-.7 2-5.6 0-4.7.3-5.7 2-6.1 1.7-.5 2-1.4 2-6 0-4.5.3-5.6 1.9-6 1.4-.3 2.3-2.6 4-10.1 1.1-5.3 2.1-10.5 2.1-11.5s.8-1.7 2-1.7c1.7 0 2-.7 2-4s.3-4 2-4c1.6 0 2-.7 2-3.5s.4-3.5 2-3.5c1.8 0 2-.7 2-6 0-4.7.3-6 1.5-6 1.1 0 1.5-1.1 1.5-3.6 0-2.7.5-3.7 2-4.1 1.5-.4 2-1.4 2-3.7 0-1.7.9-5.1 2-7.5 1.1-2.4 2-6.1 2-8.2 0-3.4.3-3.9 2.3-3.9 2.5 0 5.7-5.1 5.7-9.1 0-1.2.8-2.3 2-2.6 1.6-.4 2-1.4 2-4.3 0-5.7 3.8-15 6.1-15 1.6 0 1.9-.8 1.9-6 0-5.3.2-6 2-6 1.3 0 2-.7 2-2 0-1.1.7-2 1.5-2 1 0 1.5-1.1 1.5-3.5 0-2.8.4-3.5 2-3.5 1.7 0 2-.7 2-4s.3-4 2-4 2-.7 2-4 .3-4 2-4c1.6 0 2-.7 2-3.5 0-4 14.4-33.7 17.7-36.8 1.1-1 2.8-3.5 3.8-5.7 1.2-2.6 2.5-4 3.7-4 1.4 0 1.8-.8 1.8-3.6 0-2.7.5-3.7 2-4.1 1.6-.4 2-1.5 2.2-6.2.3-4.8.6-5.6 2.4-5.9 1.6-.2 2.5-1.5 3.4-4.9.8-2.5 2.3-5.7 3.5-7.2 1.2-1.4 4-5.3 6.2-8.6s5-6.9 6.2-7.9c1.5-1.4 2.1-3.1 2.1-6.1 0-2.8.6-4.7 1.9-5.9 1-.9 2.6-3.4 3.6-5.6 1.3-2.9 2.4-4 4-4 1.7 0 2.5-1.1 3.9-5.6 1.2-3.8 2.4-5.8 3.7-6.1 1.5-.4 1.9-1.4 1.9-4.4 0-2.8.5-4.1 2-4.9 1.1-.6 2-2.1 2-3.4 0-1.3.9-3.1 2-4.1 1.1-1 2-2.9 2-4.2 0-2 .5-2.3 4-2.3 4 0 4 0 4-3.9 0-2.2.6-4.4 1.5-5.1.8-.7 1.5-2.2 1.5-3.5 0-1.2.9-3 2-4s2-2.9 2-4.2c0-1.6.6-2.3 2-2.3 1.3 0 2-.7 2-1.8 0-1.2 1.4-2.5 4-3.7 2.9-1.3 4-2.4 4-4 0-1.2.9-3 2-4s2-2.8 2-4c0-1.1 1.8-3.8 4-6 2.2-2.1 4-4.7 4-5.7 0-1.1 1.4-2.5 3.5-3.5s3.5-2.4 3.5-3.5c0-1 .9-2.7 2-3.8 1.1-1.1 2-2.8 2-3.8 0-1.1.9-2.7 2-3.7s2-2.8 2-4c0-1.2.9-3 2-4s2-2.9 2-4.2c0-1.6.6-2.3 2-2.3 1.3 0 2.6-1.3 3.9-3.8 1.3-2.6 3.2-4.4 6-5.7 3-1.3 4.1-2.4 4.1-4 0-1.3.7-2.8 1.5-3.5.8-.7 1.5-2.2 1.5-3.4 0-1.2 1.8-3.9 4-6.1 2.2-2.2 4-4.9 4-6.1 0-1.5 1.1-2.6 4-3.9 2.9-1.3 4-2.4 4-3.9 0-1.2 1.8-3.9 4-6.1 2.2-2.1 4-4.7 4-5.7s1.6-2.6 4-3.8c2.9-1.5 4-2.7 4-4.3 0-1.3 1.5-3.8 3.5-5.7 1.9-1.9 3.5-4.2 3.5-5.2s2.5-3.4 6-5.8c4.5-3.1 6-4.7 6-6.5 0-1.5 1.3-3.4 4-5.5 2.6-2 4-4 4-5.5 0-1.7 2-3.8 7.5-7.9 4.3-3.3 7.5-6.4 7.5-7.4s3.6-5.3 8-9.7c5.1-5.1 8-8.7 8-10.1 0-1.6 3.2-4.8 11.5-11.5 7.6-6.3 11.5-10.1 11.5-11.4 0-1.3 9.1-11.1 24.7-26.7 13.7-13.7 24.5-24.8 24.2-24.8-.4 0-3.4 1.8-6.8 4.1zM3163 528.4c12.9 13 16.4 15.7 14.7 11.2-.3-.8-7-6.9-14.9-13.6l-14.3-12.3 14.5 14.7z"/><path d="M2955.5 807.6c-62.7 51.9-118 115.8-159.2 183.9-19.4 32.1-39.5 72-59 117-32.8 75.6-55.7 162.9-63.7 243.5-3.5 34.9-4.1 47.5-4.1 93.5 0 57.6 2.1 88.9 9.1 135.5 12.6 83.9 35 158.4 70.2 233.7 25.5 54.3 62.2 113.7 97.6 157.8 101.8 127 227 211 380.1 255 12.1 3.4 22.3 6.1 22.6 5.9 1.2-.7 19.5-31.5 30.9-51.9 52.6-94.3 90.4-195.9 110.6-297.1 11.1-55.9 16.6-96.5 20.6-152.9 2-28.4 1.7-121.2-.5-149.5-7.2-90.8-19.9-160.4-43.2-237.5-18.9-62.5-41.1-116.4-74.6-181.5-70.7-137.2-164.3-249.8-280.4-337.2-16.4-12.3-41.2-29.8-42.3-29.8-.4 0-7 5.2-14.7 11.6zM847.9 930.8c-.9 1.5-6.7 10.8-12.9 20.7-46.1 73.2-96.4 176.6-127.5 262-13 35.6-21.8 63.5-35.3 112-14.6 52.3-24.9 100.3-33.2 155-11.1 73.6-15 117.6-17.1 191.5-4.4 155.6 13.7 305.3 54.2 447.5 35.6 124.8 87.7 244.3 156.4 358.5 6.4 10.7 12.8 21 14.2 22.8 5.9 7.8 97.4 73.4 128 91.8 1.8 1 7 4.2 11.5 7 81.8 50.5 152.8 87.5 231.3 120.6 118.1 49.7 241.3 85.2 377.5 108.8 35 6 99.2 14.2 145.5 18.5 90.5 8.3 204.3 9.8 309.5 3.9 22.8-1.2 66.2-4.7 74-5.9 1.4-.2 6.8-.6 12-1s10.6-.8 12-1c1.4-.2 7-.9 12.5-1.5 10.5-1.1 15.6-1.7 21.5-2.5 1.9-.2 5.8-.7 8.5-1 2.8-.3 8.4-1 12.5-1.5s9.8-1.2 12.5-1.5c5.8-.7 5.6-.6 27.5-4 183.9-28.6 345.2-73.1 523-144.3 39.2-15.7 38.8-15.5 77.2-32.6 17-7.5 31-13.6 31.3-13.6 1 0 63.6-30 86.5-41.5 47.1-23.6 140.2-73.6 138.2-74.3-.5-.1-7.8 2-16.3 4.7-25.2 8.2-73 22.6-94.4 28.6-65.6 18.3-151.4 35.5-238.5 47.9-64 9.1-98.4 12.5-172.5 16.8-30 1.8-149.9 1.7-177.5 0-105.7-6.7-184.9-17.6-277.5-38.2-167.7-37.3-335.2-103.9-491.5-195.5-83.9-49.2-141.2-87.8-212-142.9-104-80.9-199.5-177.6-275.5-279.1-70.4-93.9-125.6-190-172.6-300.3-48.4-113.5-85-242.9-107.4-380.2-13.7-84.1-19.3-160.3-18.2-248 .6-45.2 1.4-64.6 4.1-96.8.6-7.8.9-14.2.6-14.2-.3 0-1.2 1.2-2.1 2.8z"/><path d="M3918.3 1740.1c-.9 4.2-1.3 16.1-1.3 32.9 0 25.3-.1 26.2-2 26.7s-2 1.4-2 23.4c0 22.2-.1 22.9-2 22.9s-2 .7-2 19.5-.1 19.5-2 19.5-2 .7-2 9.1c0 14.7-3.6 37.9-12 78.2-4.6 21.6-8 40.3-8 43.5 0 3.8-1.9 12.7-5.5 26-3.6 13.5-5.5 22.3-5.5 26.1 0 3.1-1.6 12.9-3.5 21.6-2 8.8-4.5 21.6-5.5 28.5-1.1 6.9-2.3 14-2.6 15.7-.3 2.4-1 3.3-2.4 3.3s-2.2 1.1-2.9 3.7c-5.4 20.5-14.1 56.8-14.1 58.9 0 1.7-.6 2.8-2 3.1-1.5.4-2 1.4-2 3.9 0 2.7-.4 3.4-2 3.4-1.8 0-2 .7-2 8s-.2 8-2 8-2 .7-2 6-.2 6-2 6-2 .7-2 5.5-.2 5.5-2 5.5-2 .7-2 8-.2 8-2 8c-1.3 0-2 .7-2 2s-.7 2-2 2c-1.8 0-2 .7-2 7.5 0 5.5-.3 7.5-1.3 7.5-1.3 0-5.7 16.1-5.7 20.7 0 1.6-.6 2.3-2 2.3-1.2 0-2.2.8-2.5 2.2-2.9 12.7-3.5 15.7-3.5 18.1 0 2-.6 3-2 3.4-1.5.4-2 1.4-2 3.9 0 2.7-.4 3.4-2 3.4-1.4 0-2 .7-2 2.3 0 1.3-.9 5-2 8.2-1.1 3.2-2 6.6-2 7.7 0 1.1-.7 1.8-2 1.8-1.8 0-2 .7-2 5.5 0 4.2-.3 5.5-1.5 5.5-1.1 0-1.5 1.1-1.5 4 0 3.3-.3 4-2 4-1.6 0-2 .7-2 3.6 0 2.7-.5 3.7-2 4.1-1.7.5-2 1.4-2 5.9 0 4.7-.2 5.4-2 5.4-1.7 0-2 .7-2 4s-.3 4-2 4-2 .7-2 4c0 2.3-.9 5.8-2 8s-2 4.8-2 6c0 1.3-.7 2-2 2-1.6 0-2 .7-2 3.5s-.4 3.5-2 3.5c-1.7 0-2 .7-2 4s-.3 4-2 4c-1.8 0-2 .7-2 6 0 5.1-.3 6-1.8 6-1.9 0-5.2 7.8-5.2 12.4 0 1.9-.5 2.6-2 2.6-1.3 0-2 .7-2 2s-.7 2-2 2c-1.6 0-2 .7-2 3.6 0 5.7-3.9 15.4-6.1 15.4-1.6 0-1.9.8-1.9 6 0 5.3-.2 6-2 6-1.3 0-2 .7-2 2 0 3.6-3.9 10-6 10-1.6 0-2 .7-2 3.5 0 2.4-.5 3.5-1.5 3.5-1.1 0-1.5 1.1-1.5 4 0 3.3-.3 4-2 4-1.8 0-2 .7-2 5.6 0 4.7-.3 5.7-2 6.1-1.1.3-2 1.2-2 2 0 3-4 9.3-6 9.3-1.7 0-2 .7-2 4s-.3 4-2 4-2 .7-2 4-.3 4-2 4-2 .7-2 4-.3 4-2 4c-1.3 0-2 .7-2 1.8s-.9 2.7-2 3.7c-1.3 1.2-2 3.1-2 5.7 0 2.7-.4 3.8-1.5 3.8-.8 0-1.5.9-1.5 2 0 1.3-.7 2-2 2-1.2 0-2 .7-2 1.6 0 .9-1.1 2.9-2.4 4.5-1.3 1.5-3.2 5.2-4.1 8.1-1 2.9-2.6 6.2-3.6 7.4-1.1 1.2-1.9 3.5-1.9 5.7 0 3.6-.1 3.7-4 3.7-4.3 0-4.1-.3-6.7 11.5-.7 3-1.4 4.1-3.1 4.3-1.8.3-2.2 1-2.2 4.1 0 2.4-.7 4.4-1.9 5.5-1 .9-2.6 3.4-3.6 5.6-1.2 2.6-2.5 4-3.7 4-1.4 0-1.8.8-1.8 3.6 0 2.7-.5 3.7-2 4.1-1.1.3-2 1.2-2 2s-.9 1.7-2 2c-1.5.4-2 1.4-2 3.9 0 2.7-.4 3.4-2 3.4-1.4 0-2 .7-2 2.3 0 1.3-.9 3.2-2 4.2s-2 2.6-2 3.7-.7 1.8-2 1.8c-1.7 0-2 .7-2 4 0 3.2-.4 4-1.8 4-1.1 0-2.6 1.6-4 4.5-1.2 2.5-2.9 4.8-3.7 5.1-.8.4-1.5 1.7-1.5 3 0 1.7-.6 2.4-2 2.4-1.7 0-2 .7-2 4s-.3 4-2 4c-1.3 0-2 .7-2 2s-.7 2-2 2c-1.7 0-2 .7-2 4s-.3 4-2 4-2 .7-2 3.8c0 3.6-.3 4-4 5.7-2.6 1.2-4 2.5-4 3.7 0 1.1-.7 1.8-1.8 1.8-2.1 0-5.2 5.7-5.2 9.4 0 1.7-1 2.7-4 4.1-2.9 1.3-4 2.4-4 4 0 1.2-.9 3-1.9 3.9-1.1 1-2.1 2.8-2.3 4-.2 1.3-1.7 2.8-4 3.9-2.8 1.3-3.8 2.3-3.8 4.1 0 1.2-.9 3.1-2 4.1-1.1 1-2 2.6-2 3.7s-.7 1.8-2 1.8c-1.7 0-2 .7-2 4 0 3.6-.3 4.1-3.5 5.4-2.4 1-3.5 2.2-3.5 3.5 0 1.4-1.3 2.7-4 4.1-2.7 1.4-4 2.7-4 4.1 0 1.1-.9 3.7-2 5.9s-2 4.8-2 5.8c0 1.2-1.4 2.5-4 3.7-2.9 1.3-4 2.4-4 3.9 0 1.2-1.8 3.9-4 6.1-2.3 2.2-4 4.9-4 6.1 0 1.7-.9 2.5-3.5 3.4-2.6.9-4.1 2.3-5.6 5.3-1.2 2.3-2.9 5.1-3.9 6.2-1 1.1-2 2.9-2.2 4-.2 1.1-2.9 3.8-6.1 5.9-3.8 2.7-5.7 4.7-5.7 6 0 1.4-1.8 3.2-5.5 5.6-3 1.9-5.5 4.2-5.5 5.1 0 .9-1.8 4.4-4 7.8-2.2 3.4-4 7-4 8.1 0 1.5-2.1 3-8 6-5.5 2.7-8 4.6-8 5.8 0 1-3.4 5.1-7.5 9.2-4.8 4.7-7.5 8.2-7.5 9.6 0 1.6-2.8 4.4-10 10.1-6.5 5.1-9.9 8.5-10 9.8 0 1.2-5.3 7.4-13.5 15.5-8.8 8.8-13.5 14.2-13.5 15.6 0 2.5-16.7 19-45.9 45.4-12.4 11.3-22.9 21.8-29.3 29.5-6.3 7.6-13.4 14.7-19.1 19.3-5.1 4-12.1 10.2-15.7 13.8-3.6 3.5-7.4 6.4-8.5 6.4-1.3 0-4.1 2.7-7.8 7.5-3.3 4.3-6.5 7.5-7.5 7.5s-4.4 2.7-7.7 6c-3.5 3.5-6.8 6-8 6-1.5 0-3.4 1.8-6.1 5.7-2.3 3.4-4.8 5.9-6 6.1-1.1.2-4.5 2.7-7.4 5.7-3.2 3.3-6.3 5.5-7.6 5.5-1.5 0-2.6 1.1-3.9 4-1.3 2.9-2.4 4-3.9 4-1.2 0-3.9 1.8-6.1 4-2.1 2.2-4.8 4-6 4-1.2 0-3.9 1.8-6 4s-4.7 4-5.7 4c-1.1 0-2.5 1.4-3.5 3.5-1.1 2.4-2.3 3.5-3.8 3.5-1.6 0-2.7 1.1-4 4-1.3 2.9-2.4 4-3.9 4-1.2 0-3.9 1.8-6.1 4-3.2 3.3-4.6 4-7.7 4-3.1 0-3.8.4-3.8 2 0 1.3-.7 2-2 2s-2.6 1.2-3.7 3.5c-1.1 2.4-2.3 3.5-3.8 3.5-1.2 0-3 .9-4.1 2.1-1 1.2-3.6 3-5.6 4-2.5 1.3-3.8 2.6-3.8 3.9 0 1.4-.7 2-2.3 2-1.3 0-3.2.9-4.2 2s-2.6 2-3.6 2c-1.2 0-2.6 1.5-3.9 4-1.2 2.3-2.8 4-3.8 4-.9 0-2.8.9-4.2 2-1.4 1.1-3 2-3.6 2-.7 0-1.4.9-1.7 2-.4 1.6-1.4 2-4.4 2-3.5 0-4.1.4-5.6 3.5-1.1 2.3-2.4 3.5-3.7 3.5-1.3 0-2 .7-2 2 0 1.7-.7 2-4 2s-4 .3-4 2c0 1.3-.7 2-1.8 2s-2.7.9-3.7 2-2.6 2-3.5 2c-1 0-2 .9-2.3 2-.3 1.1-1.4 2-2.5 2-1 0-2.7.9-3.7 2s-2.8 2-4 2c-1.2 0-3 .9-4 2s-2.6 2-3.7 2c-1 0-1.8.7-1.8 1.5s-.8 1.5-1.8 1.5c-1.1 0-2.7.9-3.8 2.1-1 1.2-4 3.2-6.5 4.4-2.5 1.3-5.1 3.1-5.8 3.9-.8.9-2.2 1.6-3.2 1.6-1.2 0-1.9.7-1.9 2 0 1.7-.7 2-4 2s-4 .3-4 2c0 1.3-.7 2-2 2s-2 .7-2 2c0 1.7-.7 2-4 2s-4 .3-4 2c0 1.3-1.3 2.5-4.2 3.8-2.4 1-4.9 2.6-5.7 3.5-.8 1.1-2.8 1.7-5.2 1.7-3.1 0-3.8.4-4.1 2.2-.2 1.6-1.7 2.6-6 4.1-4.2 1.3-5.8 2.4-5.8 3.6 0 1.3-1.7 2.5-5.7 4-3.2 1.2-6.7 3-7.8 4-1.1 1-4.5 2.6-7.5 3.6s-6.4 2.6-7.6 3.6c-1.1 1.1-3 1.9-4.2 1.9-1.6 0-2.2.6-2.2 2.4 0 2-.8 2.6-5.9 4-3.2.9-6.7 2.6-7.7 3.7-2.4 2.6-8.7 5.9-11.4 5.9-1.3 0-2 .7-2 2 0 1.7-.7 2-4 2s-4 .3-4 2c0 1.3-.7 2-2 2-1.1 0-2.9.9-4 2s-2.7 2-3.5 2c-.8 0-1.5.7-1.5 1.5 0 1.1-1.1 1.5-4 1.5-3.3 0-4 .3-4 2 0 1.8-.7 2-6 2s-6 .2-6 2c0 1.7-.7 2-4 2s-4 .3-4 2c0 1.6-.7 2-3.5 2-2.5 0-3.5.4-3.5 1.6 0 .9-.9 1.8-2 2.1-1.1.3-2 1.4-2 2.4 0 1.1-.7 1.9-1.7 1.9-.9 0-6.3 1.8-11.9 4-5.6 2.2-11 4-11.8 4-.9 0-1.6.6-1.6 1.2 0 .8-4 2.2-10 3.7-8.2 2-10 2.7-10 4.2 0 1.2-.7 1.9-2 1.9s-2 .7-2 2c0 1.8-.7 2-5.4 2-4.5 0-5.4.3-5.9 2-.4 1.5-1.4 2-4.1 2-2.9 0-3.6.4-3.6 2 0 1.8-.7 2-6 2s-6 .2-6 2c0 1.3-.7 2-2 2-3.4 0-9 3.2-9 5.2 0 1.5-.9 1.8-6 1.8-5.3 0-6 .2-6 2 0 1.3-.7 2-1.8 2s-4.5.9-7.7 2-6.9 2-8.2 2c-1.6 0-2.3.6-2.3 2 0 1.8-.7 2-5.5 2-4.4 0-5.5.3-5.5 1.6 0 .9-.9 1.8-2 2.1-1.1.3-2 1.4-2 2.4 0 1.7-.8 1.9-6 1.9-5.3 0-6 .2-6 2s-.7 2-5.4 2c-4.5 0-5.4.3-5.9 2-.4 1.4-1.4 2-3.4 2-1.5 0-5.3.7-8.3 1.5-3 .8-7 1.5-8.7 1.5-2.8 0-3.3.4-3.3 2.3 0 2-.9 2.6-6 4-3.3 1-6.7 1.7-7.5 1.7-.8 0-1.5.9-1.5 2 0 1.8-.7 2-6 2s-6 .2-6 2-.7 2-8 2-8 .2-8 2-.7 2-5.4 2c-4.5 0-5.4.3-5.9 2-.4 1.7-1.4 2-6.1 2-4.9 0-5.6.2-5.6 2 0 1.7-.7 2-4 2-2.9 0-4 .4-4 1.5s-1.3 1.5-5.4 1.5c-4.9 0-5.5.2-5.8 2.2-.3 2.4.7 2.2-25.5 5.3-4.4.5-5.3 1-5.3 2.6 0 1.7-.7 1.9-6 1.9s-6 .2-6 2-.7 2-6.1 2c-4.6 0-17.8 3.2-56.2 13.5-27.6 7.4-52.1 13.5-54.4 13.5-3.6 0-4.3.3-4.3 2 0 1.9-.7 2-9.5 2s-9.5.1-9.5 2c0 1.8-.7 2-6.3 2-3.7 0-17.8 2.3-33.7 5.5-15.2 3-30.1 5.5-33.5 5.5-3.3 0-20.3 2.7-37.8 6-21.9 4.1-34.1 6-39.6 6-7 0-7.9.2-8.4 2-.5 1.9-1.4 2-19.6 2-18.4 0-19.1.1-19.1 2s-.7 2-12.7 2c-7.1 0-21.6.9-32.3 2-15.5 1.6-27.2 2-57 2-26.1.1-45.2.6-63 1.9-24.8 1.8-26.3 1.8-53.5 0-20.3-1.3-40-1.9-71.8-1.9-43 0-43.9 0-44.4-2-.5-1.9-1.4-2-25.4-2-24.2 0-24.9-.1-24.9-2s-.7-2-19.4-2h-19.3l-32.4-6c-19.2-3.6-35.1-6-39.1-6-6.1 0-6.8-.2-6.8-2 0-1.9-.7-2-11.5-2-9.6 0-11.5-.3-11.5-1.5s-1.9-1.5-11.5-1.5c-10.8 0-11.5-.1-11.5-2 0-1.8-.7-2-6-2s-6-.2-6-2c0-1.9-.7-2-11.5-2s-11.5-.1-11.5-2c0-1.7-.7-2-3.8-2-2.1 0-26.3-5.4-53.8-11.9-27.4-6.6-53.7-12.6-58.4-13.5-5-.9-29.5-8.9-58.9-19.1-48.7-16.9-50.7-17.5-58.3-17.5-7.1 0-7.8-.2-7.8-2s-.7-2-6-2-6-.2-6-2c0-1.5-.7-2-2.7-2.1-1.6 0-5-.8-7.8-1.8-3.7-1.3-5.1-2.3-5.3-3.9-.2-1.5-1.1-2.2-2.5-2.2-1.2 0-6.2-.9-11.2-1.9-6.6-1.3-9.1-2.3-9.3-3.5-.3-1.2-1.5-1.6-5.9-1.6-4.6 0-5.6-.3-6-2-.5-1.7-1.4-2-5.9-2-4.7 0-5.4-.2-5.4-2 0-1.3-.7-2-2-2s-2-.7-2-2c0-1.8-.7-2-6-2s-6-.2-6-2c0-1.2-.7-2-1.7-2-.9 0-5.2-1-9.5-2.2-5.9-1.7-7.8-2.7-7.8-4 0-1.5-.9-1.8-6-1.8s-6-.3-6-1.8c0-2-5.7-5.2-9.1-5.2-1.2 0-2.3-.8-2.6-2-.4-1.5-1.4-2-4-2-1.8 0-5.1-.9-7.3-2s-4.8-2-6-2c-1.3 0-2-.7-2-2 0-1.7-.7-2-4.1-2-3 0-5.4-1-9.9-4-3.2-2.2-6.6-4-7.4-4-.9 0-1.6-.9-1.6-2 0-1.8-.7-2-6-2-4.1 0-6-.4-6-1.3 0-1.2-13.2-5.7-16.9-5.7-1.4 0-2.1-.6-2.1-2 0-1.7-.7-2-4-2s-4-.3-4-2c0-1.3-.7-2-2-2s-2-.7-2-2-.7-2-2-2c-1.2 0-3.8-.9-6-2s-4.8-2-6-2c-1.3 0-2-.7-2-2 0-1.8-.7-2-5.5-2s-5.5-.2-5.5-2c0-1.7-.7-2-4-2-2.7 0-4-.4-4-1.4 0-.7-.9-1.6-2-1.9-1.2-.3-2-1.4-2-2.5 0-1.6-1.3-2.3-6.7-3.7-3.8-.9-7.4-1.9-8.1-2.1-.6-.2-1.2-1-1.2-1.9 0-1.1-1-1.5-3.5-1.5-2.8 0-3.5-.4-3.5-2 0-1.4-.7-2-2.3-2-1.3 0-3.2-.9-4.2-2s-2.6-2-3.7-2-1.8-.7-1.8-2c0-1.7-.7-2-4-2s-4-.3-4-2c0-1.3-.7-2-1.9-2-1 0-2.9-.8-4.2-1.8-1.3-1-4.8-2.7-7.6-3.7-3.7-1.3-5.3-2.4-5.3-3.7 0-1.7-3.4-3-13.2-5.4-1.7-.4-2.8-1.4-3-2.7-.2-1.5-1.7-2.5-5.3-3.7-3.7-1.2-5.1-2.2-5.3-3.8-.3-1.9-1-2.2-4.6-2.2-2.7 0-4.8-.6-5.7-1.6-.7-.8-3.1-2.5-5.3-3.6-2.3-1.1-6.1-4-8.7-6.3-2.6-2.5-6.6-4.9-9.7-5.9-3.9-1.3-5.2-2.3-5.2-3.7 0-1.3-.7-1.9-2.3-1.9-1.3 0-3.2-.9-4.2-2s-2.6-2-3.7-2-1.8-.7-1.8-1.9c0-1.5-1.3-2.4-5.7-3.8-3.5-1.1-5.8-2.4-6.1-3.5-.2-1-1-1.8-1.7-1.8-.6 0-2-.9-3-2s-2.9-2-4.2-2c-1.6 0-2.3-.6-2.3-2 0-1.7-.7-2-4-2s-4-.3-4-2c0-1.3-.7-2-1.8-2s-2.7-.9-3.7-2-2.9-2-4.2-2c-1.6 0-2.3-.6-2.3-2 0-1.6-.7-2-3.5-2s-3.5-.4-3.5-2c0-1.4-.7-2-2.3-2-1.7 0-2.8-1-4-3.5-1-2.1-2.4-3.5-3.5-3.5s-2.7-1-3.8-2.1c-2.2-2.6-9-5.8-12-5.9-1.5 0-2.6-1.2-3.9-4-1.3-2.9-2.4-4-4-4-1.2 0-3-.9-4-2s-2.6-2-3.6-2c-1.2 0-2.6-1.5-3.9-4-1.5-2.9-2.7-4-4.4-4-1.2 0-3.1-.9-4.1-2-1-1.1-2.6-2-3.7-2s-2.5-1.4-3.5-3.5c-1-2.2-2.4-3.5-3.6-3.5-1 0-2.1-.9-2.4-2-.4-1.5-1.4-2-4.2-2-3 0-4.4-.8-7.6-4-2.1-2.2-4.7-4-5.7-4s-2.6-1.6-3.8-4c-1.4-2.6-2.7-4-4-4-1.3 0-2.6-1.2-3.7-3.5-.9-1.9-2.3-3.5-3.1-3.5-.8 0-3.6-1.8-6.2-4s-5.4-4-6.2-4c-.8 0-3.2-1.8-5.3-4-2.3-2.4-4.8-4-6.2-4-1.6 0-2.3-.6-2.3-2 0-1.3-.7-2-2-2s-2-.7-2-2-.7-2-1.8-2c-1 0-4.2-2.5-7.2-5.5-3.4-3.4-6.3-5.5-7.7-5.5-1.7 0-2.8-1.1-4.4-4.3-2.9-5.7-4.8-7.7-7.3-7.7-1.3 0-4.5-2.4-8.1-6-3.4-3.5-6.8-6-8-6-2.5 0-13.5-10.8-13.5-13.3 0-1-.8-1.7-1.8-1.7-.9 0-6-4.3-11.2-9.5-6.1-6.1-10.2-9.5-11.6-9.5-1.5 0-6-4.4-15.5-15.4-8.7-10.1-14.1-15.5-15.4-15.5-1.2-.1-9-7.2-20-18.2-9.9-9.9-24-23-31.2-29.1-9.4-7.8-13.3-11.7-13.3-13.2 0-1.4-3.6-5.7-10.1-12.1-5.5-5.5-10.7-11.4-11.6-13-.9-1.7-2.6-4.3-3.9-5.8-1.3-1.6-2.4-3.7-2.4-4.7 0-1.2-3.5-4.6-9.5-9.2-6.3-4.9-9.4-8-9.5-9.3 0-1.2-3.4-5.4-8-10-4.8-4.8-8-8.8-8-10 0-1.6-1.8-3-7.5-5.8-5.1-2.5-7.5-4.3-7.5-5.4 0-1-1.8-4.5-4-7.8s-4-6.8-4-7.7c0-1-2.6-3.5-6-5.8-4.4-3-6-4.7-6-6.3 0-1.3-1.5-3.8-3.5-5.7-1.9-1.9-3.5-4.2-3.5-5.2s-2.5-3.4-6-5.8c-3.9-2.6-6-4.8-6-6 0-1.3-1.4-2.7-4-4-3-1.5-4-2.6-4-4.5 0-1.4-.8-2.9-2-3.5-1.2-.6-2-2.1-2-3.5 0-1.8-.5-2.5-2-2.5-1.3 0-2-.7-2-1.8s-1.4-2.5-3.5-3.5c-1.9-.9-3.5-2.4-3.5-3.2 0-.9-.9-3.3-2-5.5s-2-5-2-6.3c0-1.8-1-2.8-4-4.2-2.9-1.3-4-2.4-4-4s-1.1-2.7-4-4c-3.6-1.6-4-2.1-4-5.5 0-2.9-.5-3.9-2-4.3-1.1-.3-2-1.4-2-2.5 0-1-.9-2.7-2-3.7s-2-2.6-2-3.7-1.4-2.5-3.5-3.5c-2.4-1.1-3.5-2.3-3.5-3.8 0-1.2-.9-3-2-4s-2-2.6-2-3.6c0-1.2-1.5-2.6-4-3.9-2.9-1.5-4-2.7-4-4.4 0-1.2-.9-3.1-2-4.1-1.1-1-2-2.6-2-3.7s-.7-1.8-2-1.8-2-.7-2-1.8-1.6-2.7-4-4.1c-3.5-1.9-4-2.7-4-5.7 0-2.4-.5-3.4-1.5-3.4-1.1 0-1.5-1.1-1.5-4 0-3.3-.3-4-2-4-1.3 0-2-.7-2-2 0-1.4-.7-2-2.3-2-2.6 0-5.7-5.2-5.7-9.4 0-1.3-.9-3.1-2.1-4.2-1.2-1-3-3.6-4-5.7-1.3-2.4-2.6-3.7-3.9-3.7-1.7 0-2-.7-2-4s-.3-4-2-4c-1.4 0-2-.7-2-2.4 0-1.3-.7-2.9-1.6-3.7-.8-.7-2.6-3.4-3.9-5.9-1.3-2.5-3.1-5.2-3.9-5.9-.9-.8-1.6-2.2-1.6-3.2 0-1.2-.7-1.9-2-1.9-1.7 0-2-.7-2-3.8 0-2.6-.7-4.5-2-5.7-1.1-1-2-2.9-2-4.1 0-1.8-1-2.8-3.7-4.1-3.3-1.6-3.8-2.3-4.1-5.6-.2-2.4-.8-3.7-1.7-3.7-2 0-3.1-2.4-4.5-9.8-1.1-5.4-1.5-6.2-3.5-6.2-1.6 0-2.6-.9-3.6-3.2-.7-1.8-2.5-4.6-4-6.2-1.4-1.7-3.4-5.6-4.2-8.7-.9-3-2.6-6.4-3.7-7.4s-2-2.6-2-3.7-.7-1.8-2-1.8c-1.7 0-2-.7-2-4s-.3-4-2-4c-1.3 0-2-.7-2-1.9 0-1-.7-2.4-1.6-3.2-1.8-1.5-6.4-10.2-6.4-12.3 0-.7-.9-1.6-2-1.9-1.5-.4-2-1.4-2-4.1 0-2.5-.4-3.6-1.5-3.6s-1.5-1.1-1.5-4c0-3.5-.3-4-2.3-4-2.5 0-5.7-5.1-5.7-9 0-1.3-.7-2-2-2-1.8 0-2-.7-2-6s-.2-6-2-6c-1.3 0-2-.7-2-2 0-1.1-1.8-5.6-4-10s-4-8.6-4-9.5c0-.8-.7-1.5-1.6-1.5-.9 0-1.8-.9-2.1-2-.3-1.1-1.4-2-2.4-2-1.7 0-1.9-.8-1.9-6 0-5.1-.3-6-1.8-6-2.2 0-5.2-8.5-5.2-14.8 0-3.4-.3-4.1-2.2-4.4-1.6-.2-2.6-1.7-4.1-6.1-1.4-4.3-2.3-5.7-3.8-5.7s-1.9-.7-1.9-3.4c0-2.5-.5-3.5-2-3.9-1.6-.4-2-1.4-2-4.6 0-2.3-.9-5.9-2-8.1-1.1-2.2-2-4.6-2-5.5 0-.8-.9-1.5-2-1.5-1.7 0-2-.7-2-4 0-5.1-2.8-11-5.2-11-1.4 0-1.8-.8-1.8-3.5 0-2-.9-5.3-2-7.5s-2-5.1-2-6.5c0-1.8-.5-2.5-2-2.5-1.8 0-2-.7-2-5.5s-.2-5.5-2-5.5c-1.7 0-2-.7-2-4s-.3-4-2-4-2-.7-2-4-.3-4-2-4c-1.3 0-2-.6-1.9-1.8.1-3.4-8.6-29.2-9.8-29.2-.9 0-1.3-1.8-1.3-5.4 0-4.8-.2-5.5-2.2-5.8-1.9-.3-2.4-1.6-4.4-10.8-1.2-5.8-16.2-55.1-33.2-109.5-17.1-54.5-31.8-102.8-32.7-107.5-1-4.7-5.3-24.5-9.6-44-8.3-37.2-15.9-79.6-15.9-89 0-3.5-2-12.7-5.5-25.5l-5.5-20v-17.7c0-17.1-.1-17.8-2-17.8s-2-.7-2-19.5-.1-19.5-2-19.5-2-.7-2-21.3c0-20.1-.1-21.5-2-23.2-1.8-1.7-2-3.1-2-16.8 0-12.8-2.3-45.1-3.5-48.2-.2-.6-.4 17.9-.4 41-.1 33.5.3 46.9 1.9 66 1.5 18.2 2 33.1 2 61.7 0 37.1 0 37.8 2 37.8 1.9 0 2 .7 2 11.2 0 6.2 1.8 29.1 4 50.8 2.2 21.7 4 42.8 4 46.7 0 6.6.2 7.3 2 7.3s2 .7 2 7.4c0 6.5.2 7.4 2 7.9 1.8.4 2 1.4 2 7.5 0 4.6 3.4 25.3 9.9 60.3 11.7 62.5 12.6 67.7 14.6 82.9 2.1 15.6 2.2 16 4.5 16 1.8 0 2 .7 2 8s.2 8 2 8c1.6 0 2 .7 2 3.4 0 2.5.5 3.5 2 3.9 1.8.5 2 1.4 2 8 0 6.3.3 7.5 1.8 7.9 1.5.4 2.1 2.8 3.6 13.6 1.6 12.3 3.3 17.7 25.2 83.4 18.7 56.1 23.4 71.3 23.4 75.5 0 4.6.3 5.3 2 5.3 1.3 0 2 .7 2 2s.7 2 2 2c1.8 0 2 .7 2 8s.2 8 2 8c1.4 0 2 .7 2 2.2 0 3.8 4.4 16.8 5.8 16.8.7 0 1.2 1.4 1.2 3.5 0 4.9 3.5 11.5 6 11.5 1.8 0 2 .7 2 6s.2 6 2 6c1.7 0 2 .7 2 4s.3 4 2 4 2 .7 2 4c0 2.3.9 5.8 2 8s2 5.5 2 7.5c0 2.7.4 3.5 1.8 3.5 2.3 0 6.2 7.8 6.2 12.5 0 2.8.4 3.5 2 3.5s2 .7 2 3.5c0 2.4.5 3.5 1.5 3.5 1.2 0 1.5 1.3 1.5 5.9 0 5.4.2 6 2.2 6.3 1.6.2 2.6 1.7 4.1 6 1.4 4.4 2.3 5.8 3.8 5.8s1.9.7 1.9 3.4c0 2.5.5 3.5 2 3.9 1.7.4 2 1.4 2 6.1 0 4.9.2 5.6 2 5.6 1.5 0 2 .7 2 2.5 0 1.4.9 4.3 2 6.5s2 5.3 2 7c0 2.1.5 3 1.6 3 .9 0 1.8.9 2.1 2 .3 1.1 1.2 2 1.9 2 1 0 1.4 1.3 1.4 4 0 3.3.3 4 2 4s2 .7 2 4 .3 4 2 4c1.6 0 2 .7 2 3.5s.4 3.5 2 3.5c1.8 0 2 .7 2 6s.2 6 2 6c1.7 0 2 .7 2 4v4h8v6c0 5.3.2 6 2 6 1.6 0 2 .7 2 3.4 0 2.5.5 3.5 2 3.9 1.5.4 2 1.4 2 4.1 0 2.5.4 3.6 1.5 3.6.8 0 1.5.8 1.5 1.8 0 1.1.9 2.7 2 3.7s2 2.9 2 4.2c0 1.6.6 2.3 2 2.3 1.6 0 2 .7 2 3.5s.4 3.5 2 3.5c1.4 0 2 .7 2 2.2 0 1.2.9 3.1 2 4.3 1.1 1.2 2.8 4.6 3.8 7.6 1.4 4 2.4 5.5 4 5.7 1.7.3 2.5 1.6 3.7 5.7 1.2 4.1 2.1 5.4 3.8 5.7 1.7.2 2.4 1.6 4 8 1.6 6.3 2.3 7.8 3.8 7.8s1.9.7 1.9 3.7c0 3.4.5 4.1 4 6.1 3.4 1.9 4 2.7 4 5.6 0 2.5.5 3.5 2 3.9 1.5.4 2 1.4 2 4.1 0 2.8.4 3.6 1.8 3.6 1.2 0 2.5 1.4 3.7 3.9 1 2.2 2.8 5 4.1 6.2 1.3 1.2 2.4 3.2 2.4 4.3 0 1.1 1.7 3.8 3.9 6.1 2.3 2.4 4.5 6.1 5.6 9.2 1.2 4 2.1 5.3 3.6 5.3 1.4 0 1.9.7 1.9 2.5 0 1.4.8 2.9 2 3.5 1.2.6 2 2.1 2 3.5 0 1.8.5 2.5 2 2.5 1.6 0 2 .7 2 3.4 0 2.5.5 3.5 2 3.9 1.1.3 2 1.4 2 2.5 0 1 .9 2.7 2 3.7s2 2.6 2 3.7.7 1.8 2 1.8c1.7 0 2 .7 2 4s.3 4 2 4c1.3 0 2 .7 2 2s1.2 2.6 3.5 3.7c2.4 1.1 3.5 2.3 3.5 3.8 0 1.2.9 3 2.1 4.1 2.6 2.4 5.9 8.7 5.9 11.3 0 1.4 1.3 2.7 4 4.1 2.6 1.3 4 2.7 4 4 0 1.3.7 2 2 2 1.7 0 2 .7 2 3.9 0 3.6.4 4.1 3.8 5.8 2.3 1.1 3.8 2.6 4 4 .2 1.2 1 2.7 1.8 3.3.8.7 1.4 2.3 1.4 3.6 0 1.7 1 2.9 4 4.4 2.6 1.3 4 2.7 4 4 0 1.3 1.3 2.6 3.7 3.7 2.7 1.3 3.9 2.6 4.3 4.8.4 1.6 1.4 4.4 2.3 6.2.9 1.8 1.7 3.9 1.7 4.7 0 .9 1.8 2.6 4 3.8 2.2 1.3 4 3.1 4 4 0 1 .7 1.8 1.5 1.8s1.5.8 1.5 1.8c0 1.1.9 2.7 2 3.7s2 2.8 2 4c0 1.6 1.1 2.7 4 4 2.8 1.3 4 2.4 4 3.9s1.8 3.3 6 6c4.3 2.7 6 4.4 6 6 0 1.2 1.7 3.9 4 6.1 2.2 2.1 4 4.7 4 5.7s2.2 3.3 5.5 5.4c4 2.7 5.5 4.3 5.5 6 0 1.4 1.4 3.4 4 5.4 3.5 2.8 4 3.7 4 7.3v4.2l7.8 4c5.4 2.8 7.8 4.6 8 6.1.2 1.1 3.6 5.4 7.7 9.4 4.5 4.4 7.5 8.3 7.5 9.5 0 1.3 3.8 5.9 10 12 6 6 10 10.8 10 12 0 1.3 6.4 7.7 19 19 12.5 11.2 19 17.7 19 19 0 1.3 4.1 5.4 12 11.9 7.9 6.7 15 13.8 21.2 21.3 6.8 8.2 9.9 11.3 11.6 11.3 1.5 0 2.2.6 2.2 2 0 1.3.7 2 1.8 2 1.2 0 7.1 6 15.3 15.4 8.7 10.1 14.1 15.5 15.4 15.5 1.2.1 6.1 4.1 11.5 9.6 5.8 5.8 10.3 9.5 11.5 9.5 1.2 0 5.2 3.2 10 8 5.3 5.3 8.7 8 10.2 8 1.9 0 3 1.4 6 7.5 3.7 7.4 3.8 7.5 7.5 7.5 3.1 0 3.8.4 3.8 2 0 1.3.7 2 1.8 2s2.7.9 3.7 2 2.8 2 4 2c1.7 0 3.3 1.6 6.1 6 2.7 4.1 4.5 6 5.9 6 1.2 0 3.9 1.8 6 4s4.8 4 6 4c1.3 0 3.1 1.8 5.5 5.5 2.4 3.8 4.1 5.5 5.6 5.5s2.6 1.2 3.9 4c1.3 2.9 2.4 4 3.9 4 1.2 0 3.9 1.8 6.1 4 2.1 2.2 4.9 4 6 4 1.4 0 2.7 1.1 3.8 3.5.9 1.9 2.4 3.5 3.2 3.5.9 0 3 .8 4.8 1.7 1.8.9 4.6 1.9 6.2 2.3 2.1.4 3.6 1.7 5 4.3 1.3 2.4 2.7 3.7 4.1 3.7 1.5 0 2.6 1.2 3.9 4 1.3 2.9 2.4 4 4 4 1.3 0 2.8.7 3.5 1.5.6.8 3.2 2.6 5.6 4 2.4 1.4 4.4 3.1 4.4 3.8 0 .7 1.2 1.8 2.7 2.4 1.6.7 3.5 1.7 4.3 2.2.8.5 2.3 1.2 3.3 1.5.9.3 2.5 2.1 3.4 4.1.9 1.9 2.4 3.5 3.2 3.5.9 0 2.7.9 4.1 2 1.4 1.1 4.1 2 6.3 2 3 0 3.7.4 3.7 2 0 1.3.7 2 2 2s2 .7 2 2 .7 2 2 2 2.6 1.2 3.7 3.5c1.5 3.1 2.1 3.5 5.6 3.5 3 0 4 .4 4.4 2 .4 1.5 1.4 2 3.9 2 2.7 0 3.4.4 3.4 2 0 1.3.7 2 2 2s2 .7 2 2c0 1.7.7 2 4 2s4 .3 4 2c0 1.3.7 2 1.9 2 1 0 2.4.7 3.2 1.6.7.8 3.4 2.7 6.1 4 3.3 1.7 4.8 3.1 4.8 4.4 0 1.6.7 2 3.5 2 2.4 0 3.5.5 3.5 1.5 0 .8.8 1.5 1.8 1.5 1.1 0 2.7.9 3.8 2.1 1 1.2 4 3.2 6.5 4.4 2.5 1.3 5.1 3.1 5.8 3.9.8.9 2.2 1.6 3.3 1.6 1.1 0 2.2.9 2.5 2 .4 1.5 1.4 2 4.3 2 2.5 0 4.3.7 5.6 2.1 1 1.2 4 3.2 6.7 4.5 2.6 1.3 4.7 2.9 4.7 3.5 0 .5 2.5 2.2 5.6 3.6 3 1.4 5.8 3.1 6.1 3.9.3.9 2.1 1.4 4.9 1.4 3.7 0 4.4.3 4.4 2 0 1.5 2 3 8 6s8 4.5 8 6c0 1.7.7 2 4 2s4 .3 4 2c0 1.3.7 2 1.8 2s2.7.9 3.7 2c2 2.2 10.2 5 14.7 5 2.1 0 2.8.5 2.8 1.9 0 1.6.8 2 3.8 2.3 2.9.2 3.8.8 4 2.4.3 2.2 5.8 5.4 9.2 5.4 1.3 0 2 .7 2 2 0 1.8.7 2 6 2s6 .2 6 2c0 1.7.7 2 4 2s4 .3 4 2c0 2.1 6.4 6 10 6 1.1 0 2 .7 2 1.5s.6 1.5 1.3 1.5c.8 0 2.2.9 3.2 2 1.3 1.4 3.1 2 6.2 2 3.6 0 4.3.3 4.3 2 0 1.8.7 2 6 2 5.2 0 6 .2 6 1.9 0 1 .9 2.1 2 2.4 1.1.3 2 1.2 2 2.1 0 1.2 1 1.6 3.5 1.6 2.8 0 3.5.4 3.5 2 0 1.7.7 2 4 2s4 .3 4 2c0 1.5.7 2 2.9 2 1.5 0 4.1.4 5.7 1 1.6.5 4.8 1.4 7.2 2 3.1.8 4.2 1.6 4.2 3 0 1.3 1.4 2.3 5.3 3.6 2.8.9 6.9 2.5 8.9 3.5 2.1 1.1 4.9 1.9 6.3 1.9 1.8 0 2.5.5 2.5 2 0 1.8.7 2 5.6 2 4.7 0 5.7.3 6.1 2 .4 1.5 1.4 2 3.8 2 2.7 0 3.4.5 3.7 2.1.2 1.6 1.7 2.6 6.3 4 3.3 1 6.8 1.9 7.8 1.9s1.7.8 1.7 2c0 1.8.7 2 6 2 4.7 0 6 .3 6 1.5 0 1 1.1 1.5 3.5 1.5 2.8 0 3.5.4 3.5 2 0 1.8.7 2 6 2s6 .2 6 2c0 1.7.7 2 4 2s4 .3 4 2c0 1.6.7 2 3.6 2 2.7 0 3.7.5 4.1 2 .5 1.7 1.4 2 5.9 2 4.7 0 5.4.2 5.4 2s.7 2 6 2 6 .2 6 2c0 1.1.2 2 .4 2 4.7 0 28.8 7.4 85.6 26.2 75.3 24.9 85 27.8 92.3 27.8 4 0 4.7.3 4.7 2 0 1.8.7 2 7.5 2s7.5.2 7.5 2c0 1.9.7 2 10 2s10 .1 10 2c0 1.6.7 2 3.5 2 2.4 0 3.5.5 3.5 1.5 0 1.1 1.2 1.5 4.8 1.5 2.6 0 21 3.6 40.7 8 33.7 7.5 36.6 8 47.7 8 11 0 11.8.1 11.8 1.9 0 2.4-4 1.6 49.6 10.1 43.4 6.9 44.3 7 63.2 7 18.5 0 19.2.1 19.2 2s.7 2 10 2 10 .1 10 2 .7 2 10.3 2c5.6 0 25.1.9 43.2 2 20.5 1.2 45.5 2 66 2 23.1 0 40.8.6 59 2 14.3 1.1 30.6 2 36.3 2 9.5 0 10.2-.1 10.2-2 0-2 .7-2 48.5-2s48.5 0 48.5-2 .7-2 28.5-2h28.4l35.3-5.9c19.4-3.3 41.6-6.7 49.3-7.6 27-3.1 65.3-9.5 92.5-15.4 25.5-5.5 46.8-9.3 68.3-12.2 7.4-1 8.7-1.5 8.7-3.1 0-1.4.8-1.8 4-1.8 3.3 0 4-.3 4-2 0-1.9.7-2 9.5-2s9.5-.1 9.5-2c0-1.8.7-2 8-2s8-.2 8-2c0-1.7.7-2 4-2 7.4 0 20.6-4 89.2-26.9 37.9-12.6 73.5-23.9 79.3-25.1 8.8-1.9 10.5-2.6 10.5-4.1 0-1.6.8-1.9 5.5-1.9 4.8 0 5.5-.2 5.5-2 0-1.4.7-2 2.3-2 1.2 0 7.2-1.6 13.4-3.6 9.2-3 11.3-4.1 11.5-5.8.3-1.8 1.1-2.1 5.9-2.4 4.7-.2 5.8-.6 6.2-2.2.4-1.5 1.4-2 4.1-2 2.5 0 3.6-.4 3.6-1.5 0-1.2 1.3-1.5 6-1.5 5.1 0 6-.3 6-1.8 0-1.2 1.3-2 4.8-2.9 7.9-1.9 10.2-3.1 10.2-5.3 0-1.4.7-2 2.3-2 1.3 0 5-.9 8.2-2 3.2-1.1 6.6-2 7.7-2 1.1 0 1.8-.7 1.8-2 0-1.4.7-2 2.3-2 2.7 0 11.3-2.8 16.9-5.5 2.2-1.1 3.8-2.7 4-3.9.2-1.6 1.8-2.4 7.3-3.8 3.9-1 8-1.8 9.3-1.8 1.5 0 2.2-.6 2.2-2 0-1.7.7-2 4-2s4-.3 4-2c0-1.3.7-2 2-2 2.5 0 33.1-15.3 34.9-17.4.9-1 2.9-1.6 5.7-1.6 3.7 0 4.4-.3 4.4-2 0-1.3.7-2 2-2s2-.7 2-2c0-1.6.7-2 3.5-2s3.5-.4 3.5-2c0-1.7.7-2 4.2-2 4.6 0 19.2-6.6 22.3-10.1 1-1 2.4-1.9 3-1.9.7 0 1.5-.9 1.8-2 .4-1.5 1.4-2 4.1-2 2.5 0 3.6-.4 3.6-1.5s1.2-1.5 4.5-1.5c3.4 0 4.7-.5 5.5-2 .6-1.2 3.5-2.7 7.3-3.8 4.8-1.5 6.3-2.4 6.5-4.1.3-1.7 1-2.1 3.8-2.1 2.4 0 3.4-.4 3.4-1.6 0-.9.9-1.8 2-2.1 1.1-.3 2-1.2 2-2s.9-1.7 1.9-2c1.1-.3 2.1-1.3 2.4-2.4.4-1.6 1.4-1.9 6.1-1.9 4.8 0 5.6-.3 5.6-1.8 0-1.2 1.4-2.5 4-3.7 2.2-1 4.7-2.7 5.7-3.7 1-1.1 3.9-3.1 6.4-4.3 2.5-1.3 5.1-3.1 5.8-3.9.8-1 2.9-1.6 5.2-1.6 3.2 0 3.9-.4 3.9-1.9 0-1.4 2.2-3 8.3-5.9 4.6-2.3 9.1-5 10.2-6.1 1-1.2 2.4-2.1 3.2-2.1.7 0 1.3-.7 1.3-1.5 0-1.1 1.1-1.5 4-1.5 3.3 0 4-.3 4-2 0-1.4 1.5-2.7 4.9-4.4 2.7-1.4 5.1-3.2 5.4-4.1.4-.8 1.7-1.5 3-1.5s3.2-.9 4.2-2 2.6-2 3.7-2c1 0 1.8-.7 1.8-1.6 0-.9.9-1.8 1.9-2.1 1.1-.3 2.1-1.3 2.4-2.4.4-1.5 1.4-1.9 4.5-1.9 2.6 0 4.5-.6 5.7-2 1-1.1 2.6-2 3.7-2s2.5-1.4 3.5-3.5c1.2-2.5 2.3-3.5 4-3.5 1.6 0 2.3-.6 2.3-2 0-2.1 6.4-6 9.8-6 1 0 2.7-.9 3.7-2s2.6-2 3.6-2c1.2 0 2.6-1.5 3.9-4 1.5-2.9 2.7-4 4.4-4 1.2 0 3.1-.9 4.1-2 1-1.1 2.6-2 3.7-2s1.8-.7 1.8-1.8c0-1.2 1.4-2.5 4-3.7 2.2-1 4.7-2.6 5.6-3.6 1-1.1 2.5-1.9 3.5-1.9 1.2 0 2.6-1.5 3.9-4 1.3-2.6 2.7-4 4-4 1.3 0 2.7-1.4 4-4 1.9-3.7 2.3-4 6.4-4 3 0 4.8-.6 6.1-2 1-1.1 2.6-2 3.5-2 .9 0 2.4-1.6 3.3-3.5 1.2-2.5 2.3-3.5 4-3.5 1.4 0 3.9-1.6 6.2-4 2.1-2.2 4.7-4 5.7-4s2.6-1.6 3.8-4c1.8-3.6 2.4-4 5.8-4 3.8 0 3.9-.1 5.6-5.5 1.4-4.5 2.1-5.5 3.9-5.5 1.4 0 3.9-1.7 6.2-4 2.1-2.2 4.7-4 5.7-4s3.4-2.5 5.8-6c2.6-3.9 4.8-6 6-6 1.1 0 4.7-1.8 8.1-4 3.4-2.2 6.9-4 7.8-4 1.1 0 3-2.8 5.4-7.5 3.6-7.4 3.7-7.5 7.5-7.5 3.7 0 4.2-.4 9.8-7.8 5.5-7.2 6.2-7.7 10-8 3.9-.3 4.6-.8 11.5-9.7 4.9-6.2 8.1-9.4 9.4-9.5 2.4 0 16.8-14.4 26.9-26.7 3.6-4.5 7.5-8.3 8.5-8.5 2.8-.5 48.1-45.4 48.1-47.7 0-1.3 6.2-7.4 17.4-17.3 11.3-9.9 17.5-16 17.5-17.3.1-1.2 4.2-6.1 9.6-11.5 5.8-5.8 9.5-10.3 9.5-11.5 0-1.2 3.2-5.2 8-10 4.9-4.8 8-8.8 8-10 0-1.6 1.8-3 8-6l8-3.9v-4.1c0-3.4.6-4.7 3.4-7.5 1.9-1.8 3.6-4.2 3.8-5.4.2-1.2 2.7-3.7 6.1-6 3.9-2.7 5.7-4.6 5.7-6.1 0-1.1 1.8-3.9 4-6s4-4.7 4-5.7 2.2-3.3 5.4-5.4c3.4-2.2 5.6-4.5 5.8-5.8.2-1.2 1.8-2.9 4-4.1 2.6-1.4 3.8-2.7 3.8-4.2 0-1.2.9-2.7 2-3.3 1.2-.6 2-2.1 2-3.5 0-1.8.5-2.5 2-2.5 1.3 0 2-.7 2-2s1.4-2.7 4-4c2.7-1.4 4-2.7 4-4.1 0-1.1.9-3.7 2-5.9s2-4.8 2-5.8c0-1.1 1.4-2.5 3.5-3.5 2.3-1.1 3.5-2.4 3.5-3.7 0-1.3 1.4-2.6 4-4 2.4-1.2 4-2.7 4-3.8 0-1 1.1-2.9 2.4-4.1 1.3-1.2 3.1-4 4.1-6.2 1.2-2.5 2.5-3.9 3.7-3.9 1.4 0 1.8-.8 1.8-3.5 0-2.8.4-3.5 2-3.5 1.4 0 2-.7 2-2.4 0-1.9.8-2.7 3.5-3.6 2.6-.9 3.5-1.7 3.5-3.4 0-1.3.9-3.1 2-4.1 1.4-1.2 2-3.1 2-5.7 0-3.1.4-4.1 2-4.5 1.1-.3 2-1.1 2-1.9 0-.7 1.8-2.3 4-3.4 2.6-1.3 4-2.7 4-4 0-1.3.7-2 2-2 1.7 0 2-.7 2-4s.3-4 2-4c1.3 0 2-.7 2-1.8s.9-2.7 2-3.7 2-2.9 2-4.2c0-1.6.6-2.3 2-2.3 1.6 0 2-.7 2-3.5 0-2.7.4-3.5 1.8-3.5 2.1 0 5.2-5.7 5.2-9.5 0-1.7.6-2.5 2.2-2.7 1.6-.2 2.7-1.7 4.3-5.8 1.2-3.3 2.8-5.6 3.8-5.8.9-.2 1.7-1.1 1.7-2.1s.9-2.6 2-3.6 2-2.9 2-4.2c0-1.3.7-2.6 1.5-3 .9-.3 2.7-2.7 4.1-5.4 1.7-3.4 3-4.9 4.4-4.9 1.6 0 2-.7 2-3.8 0-3.4.4-4 3.5-5.5s3.5-2.1 3.5-5.7c0-3.3.3-4 2-4s2-.7 2-3.9c0-3.3.4-4 2.2-4.3 1.9-.2 2.5-1.5 4.1-8.1l1.9-7.7h7.8v-5.5c0-4.8.3-5.5 1.9-5.5 1.5 0 2.4-1.3 3.6-5.3 1-2.8 2.6-6.1 3.6-7.3 1.1-1.1 1.9-3.1 1.9-4.3 0-1.4.7-2.5 2-2.8 1.1-.3 2-1.2 2-1.9 0-.8.9-1.4 2-1.4 1.7 0 2-.7 2-3.9 0-2.3.6-4.4 1.6-5.2 2.1-1.7 6.4-10.3 6.4-12.9 0-1.3.7-2 2-2 1.6 0 2-.7 2-3.5s.4-3.5 2-3.5c1.8 0 2-.7 2-6v-6h8v-4c0-2.9.4-4 1.5-4 1.2 0 1.5-1.3 1.5-5.6 0-4.7.3-5.7 2-6.1 1.5-.4 2-1.4 2-3.9 0-2.7.4-3.4 2-3.4 1.7 0 2-.7 2-4s.3-4 2-4c2.1 0 5.6-5.9 8-13.5.7-2.2 2.3-6.1 3.6-8.7 1.3-2.6 2.4-5.6 2.4-6.8 0-1.3.7-2 2-2s2-.7 2-2c0-1.1 1.6-5.2 3.5-9s3.5-8.1 3.5-9.5c0-1.8.5-2.5 2-2.5 1.7 0 2-.7 2-4s.3-4 2-4c1.6 0 2-.7 2-3.5 0-2 .9-5.3 2-7.5s2-4.8 2-6c0-1.3.7-2 2-2 1.7 0 2-.7 2-4s.3-4 2-4 2-.7 2-4 .3-4 2-4 2-.7 2-4c0-2.3.9-5.8 2-8s2-5.5 2-7.5c0-2.4.4-3.5 1.5-3.5s1.5-1.1 1.5-3.6c0-2.7.5-3.7 2-4.1 1.6-.4 2-1.5 2.2-6.2.3-4.8.6-5.6 2.4-5.9 1.8-.3 3.7-4.2 11.8-25.5 5.3-13.9 9.6-26 9.6-27s.8-1.7 1.9-1.7c1.6 0 2.5-1.9 5-9.3 28.2-86.3 35.1-108.8 35.1-115.3 0-5.7.3-6.7 2-7.1 1.7-.5 2-1.4 2-5.9 0-4.7.2-5.4 2-5.4s2-.7 2-7.6c0-6.7.2-7.6 2-8.1s2-1.4 2-9.9c0-8.7.1-9.4 2-9.4 1.3 0 2-.7 2-2s.7-2 2-2c1.9 0 2-.7 2-9.5s.1-9.5 2-9.5c1.8 0 2-.7 2-8 0-7.2.2-8 1.9-8 1.6 0 2.1-1.2 3.1-8.8.7-4.8 3-18.8 5.2-31.2 2.2-12.4 4.2-24 4.5-25.9.4-2.1 1.3-3.5 2.5-3.9 2.2-.5 2.3-.8 4.4-19.7.9-8.3 5.2-32.8 9.5-54.5l7.9-39.4v-16.8c0-16.1.1-16.8 2-16.8s2-.7 2-17.5c0-14.9.2-17.5 1.5-17.5s1.5-3.2 1.5-23c0-22.3.1-23 2-23 2 0 2-.7 2-32.7 0-23.4.6-40.1 2-59.2 1.7-22.3 2-33.9 1.8-72.1-.3-39.8-.5-44.7-1.5-38.9z"/></svg>